<svg xmlns="http://www.w3.org/2000/svg" xmlns:xlink="http://www.w3.org/1999/xlink" contentStyleType="text/css" data-diagram-type="DESCRIPTION" height="756.25px" preserveAspectRatio="none" style="width:695px;height:756px;" version="1.1" viewBox="0 0 695 756" width="695.8333px" zoomAndPan="magnify"><title>Arquitetura de ISBN Search</title><defs><linearGradient id="g16x2e5bzf01fq0" x1="50%" x2="50%" y1="0%" y2="100%"><stop offset="0%" stop-color="#F5F5F5"/><stop offset="100%" stop-color="#F2F2F2"/></linearGradient><linearGradient id="g16x2e5bzf01fq1" x1="50%" x2="50%" y1="0%" y2="100%"><stop offset="0%" stop-color="#33B2E2"/><stop offset="100%" stop-color="#009FDB"/></linearGradient><linearGradient id="g16x2e5bzf01fq2" x1="50%" x2="50%" y1="0%" y2="100%"><stop offset="0%" stop-color="#3786BE"/><stop offset="100%" stop-color="#0568AE"/></linearGradient></defs><g><g class="title" data-source-line="2"><rect fill="url(#g16x2e5bzf01fq0)" height="53.418" rx="4.1667" ry="4.1667" style="stroke:#C2C2C2;stroke-width:1.0417;" width="353.182" x="166.6617" y="20.8333"/><text fill="#009FDB" font-family="'Verdana'" font-size="20.8333" font-weight="bold" lengthAdjust="spacing" textLength="324.0153" x="181.2451" y="54.7546">Arquitetura de ISBN Search</text></g><!--entity Controller--><g class="entity" data-entity="Controller" data-source-line="4" data-uid="ent0002" id="entity_Controller"><rect fill="url(#g16x2e5bzf01fq1)" height="62.4674" rx="4.1667" ry="4.1667" style="stroke:#33B2E2;stroke-width:1.0417;" width="151.2044" x="469.3125" y="93.0013"/><rect fill="url(#g16x2e5bzf01fq1)" height="10.4167" style="stroke:#33B2E2;stroke-width:1.0417;" width="15.625" x="599.6836" y="98.2096"/><rect fill="url(#g16x2e5bzf01fq1)" height="2.0833" style="stroke:#33B2E2;stroke-width:1.0417;" width="4.1667" x="597.6003" y="100.293"/><rect fill="url(#g16x2e5bzf01fq1)" height="2.0833" style="stroke:#33B2E2;stroke-width:1.0417;" width="4.1667" x="597.6003" y="104.4596"/><text fill="#FFFFFF" font-family="'Verdana'" font-size="12.5" lengthAdjust="spacing" textLength="92.8711" x="493.2708" y="133.7708">BookController</text></g><!--entity Service--><g class="entity" data-entity="Service" data-source-line="6" data-uid="ent0003" id="entity_Service"><rect fill="url(#g16x2e5bzf01fq1)" height="62.4674" rx="4.1667" ry="4.1667" style="stroke:#33B2E2;stroke-width:1.0417;" width="135.6405" x="477.0938" y="223.1367"/><rect fill="url(#g16x2e5bzf01fq1)" height="10.4167" style="stroke:#33B2E2;stroke-width:1.0417;" width="15.625" x="591.9009" y="228.3451"/><rect fill="url(#g16x2e5bzf01fq1)" height="2.0833" style="stroke:#33B2E2;stroke-width:1.0417;" width="4.1667" x="589.8175" y="230.4284"/><rect fill="url(#g16x2e5bzf01fq1)" height="2.0833" style="stroke:#33B2E2;stroke-width:1.0417;" width="4.1667" x="589.8175" y="234.5951"/><text fill="#FFFFFF" font-family="'Verdana'" font-size="12.5" lengthAdjust="spacing" textLength="77.3071" x="501.0521" y="263.9062">BookService</text></g><!--entity LibApi--><g class="entity" data-entity="LibApi" data-source-line="8" data-uid="ent0004" id="entity_LibApi"><ellipse cx="320.9583" cy="434.4492" fill="#D95555" rx="8.3333" ry="8.3333" style="stroke:#CF2A2A;stroke-width:1.0417;"/><text fill="#5A5A5A" font-family="'Verdana'" font-size="12.5" lengthAdjust="spacing" textLength="63.6658" x="289.1254" y="472.0937">LibraryApi</text></g><!--entity Isbndb--><g class="entity" data-entity="Isbndb" data-source-line="9" data-uid="ent0005" id="entity_Isbndb"><rect fill="url(#g16x2e5bzf01fq1)" height="77.0182" rx="4.1667" ry="4.1667" style="stroke:#33B2E2;stroke-width:1.0417;" width="173.1588" x="17.7083" y="547.9076"/><rect fill="url(#g16x2e5bzf01fq1)" height="10.4167" style="stroke:#33B2E2;stroke-width:1.0417;" width="15.625" x="170.0338" y="553.1159"/><rect fill="url(#g16x2e5bzf01fq1)" height="2.0833" style="stroke:#33B2E2;stroke-width:1.0417;" width="4.1667" x="167.9504" y="555.1992"/><rect fill="url(#g16x2e5bzf01fq1)" height="2.0833" style="stroke:#33B2E2;stroke-width:1.0417;" width="4.1667" x="167.9504" y="559.3659"/><text fill="#FFFFFF" font-family="'Verdana'" font-size="12.5" lengthAdjust="spacing" textLength="88.1226" x="41.6667" y="588.677">IsbndbService</text><text fill="#FFFFFF" font-family="'Verdana'" font-size="12.5" lengthAdjust="spacing" textLength="114.8254" x="41.6667" y="603.2278">@Profile("isbndb")</text></g><!--entity Google--><g class="entity" data-entity="Google" data-source-line="10" data-uid="ent0006" id="entity_Google"><rect fill="url(#g16x2e5bzf01fq1)" height="77.0182" rx="4.1667" ry="4.1667" style="stroke:#33B2E2;stroke-width:1.0417;" width="186.2325" x="227.8333" y="547.9076"/><rect fill="url(#g16x2e5bzf01fq1)" height="10.4167" style="stroke:#33B2E2;stroke-width:1.0417;" width="15.625" x="393.2325" y="553.1159"/><rect fill="url(#g16x2e5bzf01fq1)" height="2.0833" style="stroke:#33B2E2;stroke-width:1.0417;" width="4.1667" x="391.1492" y="555.1992"/><rect fill="url(#g16x2e5bzf01fq1)" height="2.0833" style="stroke:#33B2E2;stroke-width:1.0417;" width="4.1667" x="391.1492" y="559.3659"/><text fill="#FFFFFF" font-family="'Verdana'" font-size="12.5" lengthAdjust="spacing" textLength="127.8992" x="251.7917" y="588.677">GoogleBooksService</text><text fill="#FFFFFF" font-family="'Verdana'" font-size="12.5" lengthAdjust="spacing" textLength="115.4419" x="251.7917" y="603.2278">@Profile("google")</text></g><!--entity OpenLib--><g class="entity" data-entity="OpenLib" data-source-line="11" data-uid="ent0007" id="entity_OpenLib"><rect fill="url(#g16x2e5bzf01fq1)" height="77.0182" rx="4.1667" ry="4.1667" style="stroke:#33B2E2;stroke-width:1.0417;" width="202.8585" x="450.7708" y="547.9076"/><rect fill="url(#g16x2e5bzf01fq1)" height="10.4167" style="stroke:#33B2E2;stroke-width:1.0417;" width="15.625" x="632.796" y="553.1159"/><rect fill="url(#g16x2e5bzf01fq1)" height="2.0833" style="stroke:#33B2E2;stroke-width:1.0417;" width="4.1667" x="630.7126" y="555.1992"/><rect fill="url(#g16x2e5bzf01fq1)" height="2.0833" style="stroke:#33B2E2;stroke-width:1.0417;" width="4.1667" x="630.7126" y="559.3659"/><text fill="#FFFFFF" font-family="'Verdana'" font-size="12.5" lengthAdjust="spacing" textLength="123.291" x="474.7292" y="588.677">OpenLibraryService</text><text fill="#FFFFFF" font-family="'Verdana'" font-size="12.5" lengthAdjust="spacing" textLength="144.5251" x="474.7292" y="603.2278">@Profile("openlibrary")</text></g><!--entity Book--><g class="entity" data-entity="Book" data-source-line="13" data-uid="ent0008" id="entity_Book"><rect fill="url(#g16x2e5bzf01fq1)" height="62.4674" rx="4.1667" ry="4.1667" style="stroke:#33B2E2;stroke-width:1.0417;" width="89.443" x="594.9792" y="403.2201"/><rect fill="url(#g16x2e5bzf01fq1)" height="10.4167" style="stroke:#33B2E2;stroke-width:1.0417;" width="15.625" x="663.5888" y="408.4284"/><rect fill="url(#g16x2e5bzf01fq1)" height="2.0833" style="stroke:#33B2E2;stroke-width:1.0417;" width="4.1667" x="661.5055" y="410.5117"/><rect fill="url(#g16x2e5bzf01fq1)" height="2.0833" style="stroke:#33B2E2;stroke-width:1.0417;" width="4.1667" x="661.5055" y="414.6784"/><text fill="#FFFFFF" font-family="'Verdana'" font-size="12.5" lengthAdjust="spacing" textLength="31.1096" x="618.9375" y="443.9895">Book</text></g><g class="entity" data-entity="GMN18" data-source-line="30" data-uid="ent0019" id="entity_GMN18"><path d="M366.5104,394.9492 L366.5104,430.2826 L330.6354,434.4492 L366.5104,438.6159 L366.5104,473.9531 A10.4167,10.4167 0 0 0 376.9271,484.3698 L548.3158,484.3698 A10.4167,10.4167 0 0 0 558.7325,473.9531 L558.7325,394.9492 L548.3158,384.5326 L376.9271,384.5326 A10.4167,10.4167 0 0 0 366.5104,394.9492" fill="url(#g16x2e5bzf01fq2)" style="stroke:#0568AE;stroke-width:1.0417;"/><path d="M548.3158,384.5326 L548.3158,389.7409 A5.2083,5.2083 0 0 0 553.5242,394.9492 L558.7325,394.9492 L548.3158,384.5326" fill="url(#g16x2e5bzf01fq2)" style="stroke:#0568AE;stroke-width:1.0417;"/><text fill="#FFFFFF" font-family="'Verdana'" font-size="12.5" lengthAdjust="spacing" textLength="123.6023" x="381.0938" y="409.677">Interface LibraryApi</text><text fill="#FFFFFF" font-family="'Verdana'" font-size="12.5" lengthAdjust="spacing" textLength="144.9341" x="381.0938" y="424.2278">fornecida por m&#250;ltiplas</text><text fill="#FFFFFF" font-family="'Verdana'" font-size="12.5" lengthAdjust="spacing" textLength="153.6804" x="381.0938" y="438.7786">implementa&#231;&#245;es de APIs</text><text fill="#FFFFFF" font-family="'Verdana'" font-size="12.5" lengthAdjust="spacing" textLength="142.2913" x="381.0938" y="453.3293">externas baseadas em</text><text fill="#FFFFFF" font-family="'Verdana'" font-size="12.5" lengthAdjust="spacing" textLength="90.1855" x="381.0938" y="467.8801">Spring Profiles</text></g><g class="entity" data-entity="GMN21" data-source-line="38" data-uid="ent0022" id="entity_GMN21"><path d="M196.9063,229.4284 L196.9063,279.3307 A10.4167,10.4167 0 0 0 207.3229,289.7474 L430.4207,289.7474 A10.4167,10.4167 0 0 0 440.8373,279.3307 L440.8373,258.543 L476.8229,254.3763 L440.8373,250.2096 L440.8373,229.4284 L430.4207,219.0117 L207.3229,219.0117 A10.4167,10.4167 0 0 0 196.9063,229.4284" fill="url(#g16x2e5bzf01fq2)" style="stroke:#0568AE;stroke-width:1.0417;"/><path d="M430.4207,219.0117 L430.4207,224.2201 A5.2083,5.2083 0 0 0 435.629,229.4284 L440.8373,229.4284 L430.4207,219.0117" fill="url(#g16x2e5bzf01fq2)" style="stroke:#0568AE;stroke-width:1.0417;"/><text fill="#FFFFFF" font-family="'Verdana'" font-size="12.5" lengthAdjust="spacing" textLength="205.3894" x="211.4896" y="244.1562">BookService consome LibraryApi</text><text fill="#FFFFFF" font-family="'Verdana'" font-size="12.5" lengthAdjust="spacing" textLength="195.1965" x="211.4896" y="258.7069">sem conhecer qual API externa</text><text fill="#FFFFFF" font-family="'Verdana'" font-size="12.5" lengthAdjust="spacing" textLength="125.4761" x="211.4896" y="273.2577">est&#225; sendo utilizada</text></g><g class="entity" data-entity="GMN24" data-source-line="44" data-uid="ent0025" id="entity_GMN24"><path d="M29.3229,698.8867 L29.3229,734.2383 A10.4167,10.4167 0 0 0 39.7396,744.6549 L168.8371,744.6549 A10.4167,10.4167 0 0 0 179.2537,734.2383 L179.2537,698.8867 L168.8371,688.4701 L108.4583,688.4701 L104.2917,625.1888 L100.125,688.4701 L39.7396,688.4701 A10.4167,10.4167 0 0 0 29.3229,698.8867" fill="url(#g16x2e5bzf01fq2)" style="stroke:#0568AE;stroke-width:1.0417;"/><path d="M168.8371,688.4701 L168.8371,693.6784 A5.2083,5.2083 0 0 0 174.0454,698.8867 L179.2537,698.8867 L168.8371,688.4701" fill="url(#g16x2e5bzf01fq2)" style="stroke:#0568AE;stroke-width:1.0417;"/><text fill="#FFFFFF" font-family="'Verdana'" font-size="12.5" lengthAdjust="spacing" textLength="82.9773" x="43.9063" y="713.6145">Ativa quando</text><text fill="#FFFFFF" font-family="'Verdana'" font-size="12.5" lengthAdjust="spacing" textLength="111.3892" x="43.9063" y="728.1653">profile = "isbndb"</text></g><g class="entity" data-entity="GMN27" data-source-line="49" data-uid="ent0028" id="entity_GMN27"><path d="M245.6771,698.8867 L245.6771,734.2383 A10.4167,10.4167 0 0 0 256.0938,744.6549 L385.8077,744.6549 A10.4167,10.4167 0 0 0 396.2244,734.2383 L396.2244,698.8867 L385.8077,688.4701 L325.125,688.4701 L320.9583,625.1888 L316.7917,688.4701 L256.0938,688.4701 A10.4167,10.4167 0 0 0 245.6771,698.8867" fill="url(#g16x2e5bzf01fq2)" style="stroke:#0568AE;stroke-width:1.0417;"/><path d="M385.8077,688.4701 L385.8077,693.6784 A5.2083,5.2083 0 0 0 391.016,698.8867 L396.2244,698.8867 L385.8077,688.4701" fill="url(#g16x2e5bzf01fq2)" style="stroke:#0568AE;stroke-width:1.0417;"/><text fill="#FFFFFF" font-family="'Verdana'" font-size="12.5" lengthAdjust="spacing" textLength="82.9773" x="260.2604" y="713.6145">Ativa quando</text><text fill="#FFFFFF" font-family="'Verdana'" font-size="12.5" lengthAdjust="spacing" textLength="112.0056" x="260.2604" y="728.1653">profile = "google"</text></g><g class="entity" data-entity="GMN30" data-source-line="54" data-uid="ent0031" id="entity_GMN30"><path d="M462.3854,698.8867 L462.3854,734.2383 A10.4167,10.4167 0 0 0 472.8021,744.6549 L631.5993,744.6549 A10.4167,10.4167 0 0 0 642.016,734.2383 L642.016,698.8867 L631.5993,688.4701 L556.375,688.4701 L552.2083,625.1888 L548.0417,688.4701 L472.8021,688.4701 A10.4167,10.4167 0 0 0 462.3854,698.8867" fill="url(#g16x2e5bzf01fq2)" style="stroke:#0568AE;stroke-width:1.0417;"/><path d="M631.5993,688.4701 L631.5993,693.6784 A5.2083,5.2083 0 0 0 636.8076,698.8867 L642.016,698.8867 L631.5993,688.4701" fill="url(#g16x2e5bzf01fq2)" style="stroke:#0568AE;stroke-width:1.0417;"/><text fill="#FFFFFF" font-family="'Verdana'" font-size="12.5" lengthAdjust="spacing" textLength="82.9773" x="476.9688" y="713.6145">Ativa quando</text><text fill="#FFFFFF" font-family="'Verdana'" font-size="12.5" lengthAdjust="spacing" textLength="141.0889" x="476.9688" y="728.1653">profile = "openlibrary"</text></g><!--link Controller to Service--><g class="link" data-entity-1="Controller" data-entity-2="Service" data-source-line="16" data-uid="lnk9" id="link_Controller_Service"><path d="M544.9167,155.9492 C544.9167,176.2201 544.9167,196.4388 544.9167,216.6576" fill="none" id="Controller-to-Service" style="stroke:#009FDB;stroke-width:3.125;"/><polygon fill="#009FDB" points="544.9167,222.9076,549.0833,213.5326,544.9167,217.6992,540.75,213.5326,544.9167,222.9076" style="stroke:#009FDB;stroke-width:3.125;"/></g><!--link Service to LibApi--><g class="link" data-entity-1="Service" data-entity-2="LibApi" data-source-line="19" data-uid="lnk10" id="link_Service_LibApi"><path d="M482.4479,286.0742 C440.625,308.8971 386.4063,343.1888 348.0417,384.5326 C336.8229,396.6263 332.5018,404.5708 328.2205,415.0187" fill="none" id="Service-to-LibApi" style="stroke:#009FDB;stroke-width:3.125;"/><path d="M333.6384,425.0309 A9.375,9.375 0 0 0 317.3349 418.3502" fill="none" style="stroke:#009FDB;stroke-width:1.5625;"/></g><!--link LibApi to Isbndb--><g class="link" data-entity-1="LibApi" data-entity-2="Isbndb" data-source-line="22" data-uid="lnk12" id="link_LibApi_Isbndb"><path d="M311.0833,442.3242 C284.6771,460.5951 210.8958,511.6263 159.0313,547.5117" fill="none" id="LibApi-Isbndb" style="stroke:#009FDB;stroke-width:3.125;"/></g><!--link LibApi to Google--><g class="link" data-entity-1="LibApi" data-entity-2="Google" data-source-line="23" data-uid="lnk14" id="link_LibApi_Google"><path d="M320.9583,443.9805 C320.9583,463.5534 320.9583,512.8242 320.9583,547.6888" fill="none" id="LibApi-Google" style="stroke:#009FDB;stroke-width:3.125;"/></g><!--link LibApi to OpenLib--><g class="link" data-entity-1="LibApi" data-entity-2="OpenLib" data-source-line="24" data-uid="lnk16" id="link_LibApi_OpenLib"><path d="M323.8854,444.1055 C327.8958,454.7513 335.9688,472.8451 348.0417,484.3659 C377,512.0221 414.9896,533.5951 450.3333,549.5846" fill="none" id="LibApi-OpenLib" style="stroke:#009FDB;stroke-width:3.125;"/></g><!--link Service to Book--><g class="link" data-entity-1="Service" data-entity-2="Book" data-source-line="27" data-uid="lnk17" id="link_Service_Book"><path d="M561.2083,286.0117 C578.625,318.7201 603.1366,364.734 620.522,397.4007" fill="none" id="Service-to-Book" style="stroke:#009FDB;stroke-width:3.125;stroke-dasharray:7.2917,7.2917;"/><polygon fill="#009FDB" points="623.4583,402.918,622.732,392.6845,621.0114,398.3202,615.3756,396.5996,623.4583,402.918" style="stroke:#009FDB;stroke-width:3.125;"/><text fill="#5A5A5A" font-family="'Verdana'" font-size="12.5" lengthAdjust="spacing" textLength="37.4207" x="605.3333" y="341.9687">&#171;use&#187;</text></g><!--SRC=[VLFDRjim3BxhARXScXpS1nYwOEaEXO5XAv1ZjeCSqxPMMNGfELZtDZlj2NRPDIyssfRoKoIzKVp8Z-H7wbrei4KeR8yrwnSLJB08AtxkJS3GiuOI8L_VVu4rQjusIctkYPu-aGjCrY9_1-tX-8pu6dbdjZY2qLPgle3PPrEmvfTLPsO39aynrIRtXIkB6FdDVNnagep5-SoCm6mnCarHQlD0L5iSwlWBAVM8nfGfL6s-TkXYxGif9AYTq9WNu-CuesimbBev6HPwhm_ZdRYpR7cS-YQPi2NdISGsBY1NMZn7DM3EA9epbaTueL9cbisJLCANjvsLfRcWzt_sVz53HUnmY-qLvevfPyfpvabAoFekIyoJL6UkgCAPxsIWmBhGjj4oMGjK_C10KQOKSNkx71tm7kxkUe_BfLAE0WARkWb0LM85o2_qBkvfDbDgw8YXtV-pmNHMUu7CQntaL5UF-G3XJo5pihH2UzIb6DYAUzsnSJN4lNk5heIXdTYKnMhiAUqEuEIM3-ixQy-BwW8q8Z_3Sw_jq44gFpJYm_wtHBcIe0_6cb_IpUkw1OKmA5Yb2mTO1RFJ0w4aohEREeOFa7x4TOvuycznn2zodIET_riafv_cmFGV]--></g></svg>