<svg xmlns="http://www.w3.org/2000/svg" xmlns:xlink="http://www.w3.org/1999/xlink" contentStyleType="text/css" data-diagram-type="SEQUENCE" height="485px" preserveAspectRatio="none" style="width:410px;height:485px;background:#FFFFFF;" version="1.1" viewBox="0 0 410 485" width="410px" zoomAndPan="magnify"><title>Vista de processo - N&#237;vel 2</title><defs/><g><text fill="#000000" font-family="sans-serif" font-size="14" font-weight="bold" lengthAdjust="spacing" textLength="196.2666" x="108.4187" y="28.5352">Vista de processo - N&#237;vel 2</text><g><title>BackEnd</title><rect fill="#FFFFFF" height="87.9316" style="stroke:#181818;stroke-width:1;" width="10" x="217.3911" y="150.2871"/></g><g><title>BackEnd</title><rect fill="#FFFFFF" height="87.9316" style="stroke:#181818;stroke-width:1;" width="10" x="217.3911" y="291.8398"/></g><g><title>DataBase</title><rect fill="#FFFFFF" height="29.3105" style="stroke:#181818;stroke-width:1;" width="10" x="351.1509" y="179.5977"/></g><g><title>DataBase</title><rect fill="#FFFFFF" height="29.3105" style="stroke:#181818;stroke-width:1;" width="10" x="351.1509" y="321.1504"/></g><rect fill="none" height="134.5527" style="stroke:#000000;stroke-width:1.5;" width="394.104" x="10" y="253.2188"/><g><title>Cliente</title><rect fill="#000000" fill-opacity="0.00000" height="285.7949" width="8" x="42.6523" y="118.9766"/><line style="stroke:#181818;stroke-width:0.5;stroke-dasharray:5,5;" x1="46" x2="46" y1="118.9766" y2="404.7715"/></g><g><title>BackEnd</title><rect fill="#000000" fill-opacity="0.00000" height="285.7949" width="8" x="218.3911" y="118.9766"/><line style="stroke:#181818;stroke-width:0.5;stroke-dasharray:5,5;" x1="222.2783" x2="222.2783" y1="118.9766" y2="404.7715"/></g><g><title>DataBase</title><rect fill="#000000" fill-opacity="0.00000" height="285.7949" width="8" x="352.1509" y="118.9766"/><line style="stroke:#181818;stroke-width:0.5;stroke-dasharray:5,5;" x1="355.1978" x2="355.1978" y1="118.9766" y2="404.7715"/></g><g class="participant participant-head" data-participant="Client"><text fill="#000000" font-family="sans-serif" font-size="14" lengthAdjust="spacing" textLength="47.3047" x="20" y="116.0234">Cliente</text><ellipse cx="46.6523" cy="50.9883" fill="#E2E2F0" rx="8" ry="8" style="stroke:#181818;stroke-width:0.5;"/><path d="M46.6523,58.9883 L46.6523,85.9883 M33.6523,66.9883 L59.6523,66.9883 M46.6523,85.9883 L33.6523,100.9883 M46.6523,85.9883 L59.6523,100.9883" fill="none" style="stroke:#181818;stroke-width:0.5;"/></g><g class="participant participant-tail" data-participant="Client"><text fill="#000000" font-family="sans-serif" font-size="14" lengthAdjust="spacing" textLength="47.3047" x="20" y="417.3066">Cliente</text><ellipse cx="46.6523" cy="428.7598" fill="#E2E2F0" rx="8" ry="8" style="stroke:#181818;stroke-width:0.5;"/><path d="M46.6523,436.7598 L46.6523,463.7598 M33.6523,444.7598 L59.6523,444.7598 M46.6523,463.7598 L33.6523,478.7598 M46.6523,463.7598 L59.6523,478.7598" fill="none" style="stroke:#181818;stroke-width:0.5;"/></g><g class="participant participant-head" data-participant="System"><rect fill="#E2E2F0" height="30.4883" rx="2.5" ry="2.5" style="stroke:#181818;stroke-width:0.5;" width="70.2256" x="187.2783" y="87.4883"/><text fill="#000000" font-family="sans-serif" font-size="14" lengthAdjust="spacing" textLength="56.2256" x="194.2783" y="108.0234">BackEnd</text></g><g class="participant participant-tail" data-participant="System"><rect fill="#E2E2F0" height="30.4883" rx="2.5" ry="2.5" style="stroke:#181818;stroke-width:0.5;" width="70.2256" x="187.2783" y="403.7715"/><text fill="#000000" font-family="sans-serif" font-size="14" lengthAdjust="spacing" textLength="56.2256" x="194.2783" y="424.3066">BackEnd</text></g><g class="participant participant-head" data-participant="DB"><rect fill="#E2E2F0" height="30.4883" rx="2.5" ry="2.5" style="stroke:#181818;stroke-width:0.5;" width="75.9063" x="318.1978" y="87.4883"/><text fill="#000000" font-family="sans-serif" font-size="14" lengthAdjust="spacing" textLength="61.9063" x="325.1978" y="108.0234">DataBase</text></g><g class="participant participant-tail" data-participant="DB"><rect fill="#E2E2F0" height="30.4883" rx="2.5" ry="2.5" style="stroke:#181818;stroke-width:0.5;" width="75.9063" x="318.1978" y="403.7715"/><text fill="#000000" font-family="sans-serif" font-size="14" lengthAdjust="spacing" textLength="61.9063" x="325.1978" y="424.3066">DataBase</text></g><g><title>BackEnd</title><rect fill="#FFFFFF" height="87.9316" style="stroke:#181818;stroke-width:1;" width="10" x="217.3911" y="150.2871"/></g><g><title>BackEnd</title><rect fill="#FFFFFF" height="87.9316" style="stroke:#181818;stroke-width:1;" width="10" x="217.3911" y="291.8398"/></g><g><title>DataBase</title><rect fill="#FFFFFF" height="29.3105" style="stroke:#181818;stroke-width:1;" width="10" x="351.1509" y="179.5977"/></g><g><title>DataBase</title><rect fill="#FFFFFF" height="29.3105" style="stroke:#181818;stroke-width:1;" width="10" x="351.1509" y="321.1504"/></g><g class="message" data-participant-1="Client" data-participant-2="System"><polygon fill="#181818" points="205.3911,146.2871,215.3911,150.2871,205.3911,154.2871,209.3911,150.2871" style="stroke:#181818;stroke-width:1;"/><line style="stroke:#181818;stroke-width:1;" x1="46.6523" x2="211.3911" y1="150.2871" y2="150.2871"/><text fill="#000000" font-family="sans-serif" font-size="13" lengthAdjust="spacing" textLength="141.5654" x="61.239" y="145.5449">PUT /api/books/{isbn}</text></g><g class="message" data-participant-1="System" data-participant-2="DB"><polygon fill="#181818" points="339.1509,175.5977,349.1509,179.5977,339.1509,183.5977,343.1509,179.5977" style="stroke:#181818;stroke-width:1;"/><line style="stroke:#181818;stroke-width:1;" x1="227.3911" x2="345.1509" y1="179.5977" y2="179.5977"/><text fill="#000000" font-family="sans-serif" font-size="13" lengthAdjust="spacing" textLength="76.0005" x="251.2708" y="174.8555">Create Book</text></g><g class="message" data-participant-1="DB" data-participant-2="System"><polygon fill="#181818" points="238.3911,204.9082,228.3911,208.9082,238.3911,212.9082,234.3911,208.9082" style="stroke:#181818;stroke-width:1;"/><line style="stroke:#181818;stroke-width:1;stroke-dasharray:2,2;" x1="232.3911" x2="355.1509" y1="208.9082" y2="208.9082"/><text fill="#000000" font-family="sans-serif" font-size="13" lengthAdjust="spacing" textLength="99.7598" x="241.8911" y="204.166">newBook : Book</text></g><g class="message" data-participant-1="System" data-participant-2="Client"><polygon fill="#181818" points="57.6523,234.2188,47.6523,238.2188,57.6523,242.2188,53.6523,238.2188" style="stroke:#181818;stroke-width:1;"/><line style="stroke:#181818;stroke-width:1;stroke-dasharray:2,2;" x1="51.6523" x2="221.3911" y1="238.2188" y2="238.2188"/><text fill="#000000" font-family="sans-serif" font-size="13" lengthAdjust="spacing" textLength="146.7388" x="61.1523" y="233.4766">201 Created (newBook)</text></g><path d="M10,253.2188 L72.1387,253.2188 L72.1387,260.5293 L62.1387,270.5293 L10,270.5293 L10,253.2188" fill="#EEEEEE" style="stroke:#000000;stroke-width:1.5;"/><rect fill="none" height="134.5527" style="stroke:#000000;stroke-width:1.5;" width="394.104" x="10" y="253.2188"/><text fill="#000000" font-family="sans-serif" font-size="13" font-weight="bold" lengthAdjust="spacing" textLength="17.1387" x="25" y="266.7871">alt</text><text fill="#000000" font-family="sans-serif" font-size="11" font-weight="bold" lengthAdjust="spacing" textLength="110.3921" x="87.1387" y="265.8535">[Bad Request Error]</text><g class="message" data-participant-1="Client" data-participant-2="System"><polygon fill="#181818" points="205.3911,287.8398,215.3911,291.8398,205.3911,295.8398,209.3911,291.8398" style="stroke:#181818;stroke-width:1;"/><line style="stroke:#181818;stroke-width:1;" x1="46.6523" x2="211.3911" y1="291.8398" y2="291.8398"/><text fill="#000000" font-family="sans-serif" font-size="13" lengthAdjust="spacing" textLength="141.5654" x="61.239" y="287.0977">PUT /api/books/{isbn}</text></g><g class="message" data-participant-1="System" data-participant-2="DB"><polygon fill="#181818" points="339.1509,317.1504,349.1509,321.1504,339.1509,325.1504,343.1509,321.1504" style="stroke:#181818;stroke-width:1;"/><line style="stroke:#181818;stroke-width:1;" x1="227.3911" x2="345.1509" y1="321.1504" y2="321.1504"/><text fill="#000000" font-family="sans-serif" font-size="13" lengthAdjust="spacing" textLength="76.0005" x="251.2708" y="316.4082">Create Book</text></g><g class="message" data-participant-1="DB" data-participant-2="System"><polygon fill="#181818" points="238.3911,346.4609,228.3911,350.4609,238.3911,354.4609,234.3911,350.4609" style="stroke:#181818;stroke-width:1;"/><line style="stroke:#181818;stroke-width:1;stroke-dasharray:2,2;" x1="232.3911" x2="355.1509" y1="350.4609" y2="350.4609"/><text fill="#000000" font-family="sans-serif" font-size="13" lengthAdjust="spacing" textLength="30.9893" x="276.2764" y="345.7188">Error</text></g><g class="message" data-participant-1="System" data-participant-2="Client"><polygon fill="#181818" points="57.6523,375.7715,47.6523,379.7715,57.6523,383.7715,53.6523,379.7715" style="stroke:#181818;stroke-width:1;"/><line style="stroke:#181818;stroke-width:1;stroke-dasharray:2,2;" x1="51.6523" x2="221.3911" y1="379.7715" y2="379.7715"/><text fill="#000000" font-family="sans-serif" font-size="13" lengthAdjust="spacing" textLength="106.1709" x="81.4363" y="375.0293">400 Bad Request</text></g><!--SRC=[ZP1DJiCm48NtFiKeArX42HMhB91mqoK8yRUVEgFAIce7UoX2Y2Dn2Yw6ZLFgLAg4DxPdtliypwnv87ZMdX4wWj5PHTvRAE7s-sj70oo4xxKPqU4MFBsyab5q4oIueUj1RmmeCanE25Hi7HJBGST20UWXdKKmirPwHCDGI5JzodI__OTtpxITzrjabEWJe9L290YKLvEyWRkdHwXmrDNQsjvN7zglpMTyN- -GQKyLQO_6LZQmT1IRCbWEqi1l9PG7jg6tg80c2JlAfN_4e4zJDR2eBoPq1sUJ-pptxQV1WK5Y1_Vn3pt3oZdh18Jrtu1HUuoDjTCvPuuG8DxdURCnvbbpS1Rtigxp5CV6QIeodVW1]--></g></svg>