<svg xmlns="http://www.w3.org/2000/svg" xmlns:xlink="http://www.w3.org/1999/xlink" contentStyleType="text/css" data-diagram-type="SEQUENCE" height="530px" preserveAspectRatio="none" style="width:787px;height:530px;background:#FFFFFF;" version="1.1" viewBox="0 0 787 530" width="787px" zoomAndPan="magnify"><title>Vista de processo - N&#237;vel 3</title><defs/><g><text fill="#000000" font-family="sans-serif" font-size="14" font-weight="bold" lengthAdjust="spacing" textLength="196.2666" x="294.4038" y="28.5352">Vista de processo - N&#237;vel 3</text><g><title>.BookController</title><rect fill="#FFFFFF" height="288.75" style="stroke:#181818;stroke-width:1;" width="10" x="212.1431" y="150.2871"/></g><g><title>.BookService</title><rect fill="#FFFFFF" height="146.5527" style="stroke:#181818;stroke-width:1;" width="10" x="430.2588" y="179.5977"/></g><g><title>.LibraryApi</title><rect fill="#FFFFFF" height="87.9316" style="stroke:#181818;stroke-width:1;" width="10" x="585.7168" y="208.9082"/></g><g><title>External API</title><rect fill="#FFFFFF" height="29.3105" style="stroke:#181818;stroke-width:1;" width="10" x="728.4414" y="238.2188"/></g><rect fill="none" height="90.8867" style="stroke:#000000;stroke-width:1.5;" width="277.1558" x="10" y="341.1504"/><g><title>.Cliente</title><rect fill="#000000" fill-opacity="0.00000" height="330.0605" width="8" x="44.8672" y="118.9766"/><line style="stroke:#181818;stroke-width:0.5;stroke-dasharray:5,5;" x1="48" x2="48" y1="118.9766" y2="449.0371"/></g><g><title>.BookController</title><rect fill="#000000" fill-opacity="0.00000" height="330.0605" width="8" x="213.1431" y="118.9766"/><line style="stroke:#181818;stroke-width:0.5;stroke-dasharray:5,5;" x1="217.1304" x2="217.1304" y1="118.9766" y2="449.0371"/></g><g><title>.BookService</title><rect fill="#000000" fill-opacity="0.00000" height="330.0605" width="8" x="431.2588" y="118.9766"/><line style="stroke:#181818;stroke-width:0.5;stroke-dasharray:5,5;" x1="434.6606" x2="434.6606" y1="118.9766" y2="449.0371"/></g><g><title>.LibraryApi</title><rect fill="#000000" fill-opacity="0.00000" height="330.0605" width="8" x="586.7168" y="118.9766"/><line style="stroke:#181818;stroke-width:0.5;stroke-dasharray:5,5;" x1="589.8301" x2="589.8301" y1="118.9766" y2="449.0371"/></g><g><title>External API</title><rect fill="#000000" fill-opacity="0.00000" height="330.0605" width="8" x="729.4414" y="118.9766"/><line style="stroke:#181818;stroke-width:0.5;stroke-dasharray:5,5;" x1="732.8086" x2="732.8086" y1="118.9766" y2="449.0371"/></g><g class="participant participant-head" data-participant="Client"><text fill="#000000" font-family="sans-serif" font-size="14" lengthAdjust="spacing" textLength="51.7344" x="20" y="116.0234">:Cliente</text><ellipse cx="48.8672" cy="50.9883" fill="#E2E2F0" rx="8" ry="8" style="stroke:#181818;stroke-width:0.5;"/><path d="M48.8672,58.9883 L48.8672,85.9883 M35.8672,66.9883 L61.8672,66.9883 M48.8672,85.9883 L35.8672,100.9883 M48.8672,85.9883 L61.8672,100.9883" fill="none" style="stroke:#181818;stroke-width:0.5;"/></g><g class="participant participant-tail" data-participant="Client"><text fill="#000000" font-family="sans-serif" font-size="14" lengthAdjust="spacing" textLength="51.7344" x="20" y="461.5723">:Cliente</text><ellipse cx="48.8672" cy="473.0254" fill="#E2E2F0" rx="8" ry="8" style="stroke:#181818;stroke-width:0.5;"/><path d="M48.8672,481.0254 L48.8672,508.0254 M35.8672,489.0254 L61.8672,489.0254 M48.8672,508.0254 L35.8672,523.0254 M48.8672,508.0254 L61.8672,523.0254" fill="none" style="stroke:#181818;stroke-width:0.5;"/></g><g class="participant participant-head" data-participant="Controller"><rect fill="#E2E2F0" height="30.4883" rx="2.5" ry="2.5" style="stroke:#181818;stroke-width:0.5;" width="120.0254" x="157.1304" y="87.4883"/><text fill="#000000" font-family="sans-serif" font-size="14" lengthAdjust="spacing" textLength="106.0254" x="164.1304" y="108.0234">:BookController</text></g><g class="participant participant-tail" data-participant="Controller"><rect fill="#E2E2F0" height="30.4883" rx="2.5" ry="2.5" style="stroke:#181818;stroke-width:0.5;" width="120.0254" x="157.1304" y="448.0371"/><text fill="#000000" font-family="sans-serif" font-size="14" lengthAdjust="spacing" textLength="106.0254" x="164.1304" y="468.5723">:BookController</text></g><g class="participant participant-head" data-participant="Service"><rect fill="#E2E2F0" height="30.4883" rx="2.5" ry="2.5" style="stroke:#181818;stroke-width:0.5;" width="99.1963" x="385.6606" y="87.4883"/><text fill="#000000" font-family="sans-serif" font-size="14" lengthAdjust="spacing" textLength="85.1963" x="392.6606" y="108.0234">:BookService</text></g><g class="participant participant-tail" data-participant="Service"><rect fill="#E2E2F0" height="30.4883" rx="2.5" ry="2.5" style="stroke:#181818;stroke-width:0.5;" width="99.1963" x="385.6606" y="448.0371"/><text fill="#000000" font-family="sans-serif" font-size="14" lengthAdjust="spacing" textLength="85.1963" x="392.6606" y="468.5723">:BookService</text></g><g class="participant participant-head" data-participant="Interface"><rect fill="#E2E2F0" height="30.4883" rx="2.5" ry="2.5" style="stroke:#181818;stroke-width:0.5;" width="87.7734" x="546.8301" y="87.4883"/><text fill="#000000" font-family="sans-serif" font-size="14" lengthAdjust="spacing" textLength="73.7734" x="553.8301" y="108.0234">:LibraryApi</text></g><g class="participant participant-tail" data-participant="Interface"><rect fill="#E2E2F0" height="30.4883" rx="2.5" ry="2.5" style="stroke:#181818;stroke-width:0.5;" width="87.7734" x="546.8301" y="448.0371"/><text fill="#000000" font-family="sans-serif" font-size="14" lengthAdjust="spacing" textLength="73.7734" x="553.8301" y="468.5723">:LibraryApi</text></g><g class="participant participant-head" data-participant="API"><rect fill="#E2E2F0" height="30.4883" rx="2.5" ry="2.5" style="stroke:#181818;stroke-width:0.5;" width="95.2656" x="685.8086" y="87.4883"/><text fill="#000000" font-family="sans-serif" font-size="14" lengthAdjust="spacing" textLength="81.2656" x="692.8086" y="108.0234">External API</text></g><g class="participant participant-tail" data-participant="API"><rect fill="#E2E2F0" height="30.4883" rx="2.5" ry="2.5" style="stroke:#181818;stroke-width:0.5;" width="95.2656" x="685.8086" y="448.0371"/><text fill="#000000" font-family="sans-serif" font-size="14" lengthAdjust="spacing" textLength="81.2656" x="692.8086" y="468.5723">External API</text></g><g><title>.BookController</title><rect fill="#FFFFFF" height="288.75" style="stroke:#181818;stroke-width:1;" width="10" x="212.1431" y="150.2871"/></g><g><title>.BookService</title><rect fill="#FFFFFF" height="146.5527" style="stroke:#181818;stroke-width:1;" width="10" x="430.2588" y="179.5977"/></g><g><title>.LibraryApi</title><rect fill="#FFFFFF" height="87.9316" style="stroke:#181818;stroke-width:1;" width="10" x="585.7168" y="208.9082"/></g><g><title>External API</title><rect fill="#FFFFFF" height="29.3105" style="stroke:#181818;stroke-width:1;" width="10" x="728.4414" y="238.2188"/></g><g class="message" data-participant-1="Client" data-participant-2="Controller"><polygon fill="#181818" points="200.1431,146.2871,210.1431,150.2871,200.1431,154.2871,204.1431,150.2871" style="stroke:#181818;stroke-width:1;"/><line style="stroke:#181818;stroke-width:1;" x1="48.8672" x2="206.1431" y1="150.2871" y2="150.2871"/><text fill="#000000" font-family="sans-serif" font-size="13" lengthAdjust="spacing" textLength="144.2759" x="55.8672" y="145.5449">GET /isbn?title={t&#237;tulo}</text></g><g class="message" data-participant-1="Controller" data-participant-2="Service"><polygon fill="#181818" points="418.2588,175.5977,428.2588,179.5977,418.2588,183.5977,422.2588,179.5977" style="stroke:#181818;stroke-width:1;"/><line style="stroke:#181818;stroke-width:1;" x1="222.1431" x2="424.2588" y1="179.5977" y2="179.5977"/><text fill="#000000" font-family="sans-serif" font-size="13" lengthAdjust="spacing" textLength="189.1157" x="229.1431" y="174.8555">findIsbnFromExternalApi(title)</text></g><g class="message" data-participant-1="Service" data-participant-2="Interface"><polygon fill="#181818" points="573.7168,204.9082,583.7168,208.9082,573.7168,212.9082,577.7168,208.9082" style="stroke:#181818;stroke-width:1;"/><line style="stroke:#181818;stroke-width:1;" x1="440.2588" x2="579.7168" y1="208.9082" y2="208.9082"/><text fill="#000000" font-family="sans-serif" font-size="13" lengthAdjust="spacing" textLength="126.458" x="447.2588" y="204.166">findIsbnByTitle(title)</text></g><g class="message" data-participant-1="Interface" data-participant-2="API"><polygon fill="#181818" points="716.4414,234.2188,726.4414,238.2188,716.4414,242.2188,720.4414,238.2188" style="stroke:#181818;stroke-width:1;"/><line style="stroke:#181818;stroke-width:1;" x1="595.7168" x2="722.4414" y1="238.2188" y2="238.2188"/><text fill="#000000" font-family="sans-serif" font-size="13" lengthAdjust="spacing" textLength="113.7246" x="602.7168" y="233.4766">GET /books/{title}</text></g><g class="message" data-participant-1="API" data-participant-2="Interface"><polygon fill="#181818" points="606.7168,263.5293,596.7168,267.5293,606.7168,271.5293,602.7168,267.5293" style="stroke:#181818;stroke-width:1;"/><line style="stroke:#181818;stroke-width:1;stroke-dasharray:2,2;" x1="600.7168" x2="732.4414" y1="267.5293" y2="267.5293"/><text fill="#000000" font-family="sans-serif" font-size="13" lengthAdjust="spacing" textLength="103.5112" x="612.7168" y="262.7871">Response (JSON)</text></g><g class="message" data-participant-1="Interface" data-participant-2="Service"><polygon fill="#181818" points="451.2588,292.8398,441.2588,296.8398,451.2588,300.8398,447.2588,296.8398" style="stroke:#181818;stroke-width:1;"/><line style="stroke:#181818;stroke-width:1;stroke-dasharray:2,2;" x1="445.2588" x2="589.7168" y1="296.8398" y2="296.8398"/><text fill="#000000" font-family="sans-serif" font-size="13" lengthAdjust="spacing" textLength="111.6743" x="457.2588" y="292.0977">Optional&lt;String&gt;</text></g><g class="message" data-participant-1="Service" data-participant-2="Controller"><polygon fill="#181818" points="233.1431,322.1504,223.1431,326.1504,233.1431,330.1504,229.1431,326.1504" style="stroke:#181818;stroke-width:1;"/><line style="stroke:#181818;stroke-width:1;stroke-dasharray:2,2;" x1="227.1431" x2="434.2588" y1="326.1504" y2="326.1504"/><text fill="#000000" font-family="sans-serif" font-size="13" lengthAdjust="spacing" textLength="111.6743" x="239.1431" y="321.4082">Optional&lt;String&gt;</text></g><path d="M10,341.1504 L72.1387,341.1504 L72.1387,348.4609 L62.1387,358.4609 L10,358.4609 L10,341.1504" fill="#EEEEEE" style="stroke:#000000;stroke-width:1.5;"/><rect fill="none" height="90.8867" style="stroke:#000000;stroke-width:1.5;" width="277.1558" x="10" y="341.1504"/><text fill="#000000" font-family="sans-serif" font-size="13" font-weight="bold" lengthAdjust="spacing" textLength="17.1387" x="25" y="354.7188">alt</text><text fill="#000000" font-family="sans-serif" font-size="11" font-weight="bold" lengthAdjust="spacing" textLength="86.6196" x="87.1387" y="353.7852">[ISBN presente]</text><g class="message" data-participant-1="Controller" data-participant-2="Client"><polygon fill="#181818" points="59.8672,375.7715,49.8672,379.7715,59.8672,383.7715,55.8672,379.7715" style="stroke:#181818;stroke-width:1;"/><line style="stroke:#181818;stroke-width:1;stroke-dasharray:2,2;" x1="53.8672" x2="211.1431" y1="379.7715" y2="379.7715"/><text fill="#000000" font-family="sans-serif" font-size="13" lengthAdjust="spacing" textLength="87.7563" x="65.8672" y="375.0293">200 OK (ISBN)</text></g><line style="stroke:#000000;stroke-width:1;stroke-dasharray:2,2;" x1="10" x2="287.1558" y1="388.7715" y2="388.7715"/><text fill="#000000" font-family="sans-serif" font-size="11" font-weight="bold" lengthAdjust="spacing" textLength="125.4473" x="15" y="399.4063">[ISBN n&#227;o encontrado]</text><g class="message" data-participant-1="Controller" data-participant-2="Client"><polygon fill="#181818" points="59.8672,420.0371,49.8672,424.0371,59.8672,428.0371,55.8672,424.0371" style="stroke:#181818;stroke-width:1;"/><line style="stroke:#181818;stroke-width:1;stroke-dasharray:2,2;" x1="53.8672" x2="211.1431" y1="424.0371" y2="424.0371"/><text fill="#000000" font-family="sans-serif" font-size="13" lengthAdjust="spacing" textLength="94.6118" x="65.8672" y="419.2949">404 Not Found</text></g><!--SRC=[VL91Ri8m4Bpx5QkUu810BQUefG84LTegL0NrRfAbikhQaRsW8jJNzCmh-5Zj92I6LaIoievcPcSsIu8amfkmn253o8rEqLeD7KWE-mrAk66CfwGDN4LZAL0HNW6tKDOivuP4AdAko056Md-CjIAZfKHJukhhFzWvcer8Iy6gFaCzYwNXPZlCHG6ANNkpukUmoPVxhBY4uKjSuDoRiT8YT0Q1YGWU9Wle2hjKz-IZt-teiAUrrDy-fjXmmj0pQselL9cCO2LK5ZkHgT6Vn-xEPAlGR3TInrIiAhn87QAH6MqNdlY7tkHbTUabNBugoTADqNPt1J68u0VW3dHE-xsYpRMo2At7-InfimnF666JCEqi9w5Tmjiv6Q7U1o4li5XdF1lv9Nez82u9ulaeSIk8rgyP0_U4u_UgnI-DuBhNWzaJj3oXpL2wH0LN7Nuqe4ezYsVwaaI_ruT44qprMcKCtGbj1Ilm2m00]--></g></svg>