<svg xmlns="http://www.w3.org/2000/svg" xmlns:xlink="http://www.w3.org/1999/xlink" contentStyleType="text/css" data-diagram-type="DESCRIPTION" height="741.6667px" preserveAspectRatio="none" style="width:833px;height:741px;" version="1.1" viewBox="0 0 833 741" width="833.3333px" zoomAndPan="magnify"><title>Arquitetura de Gera&#231;&#227;o de IDs</title><defs><linearGradient id="g1bighp8rul0ed0" x1="50%" x2="50%" y1="0%" y2="100%"><stop offset="0%" stop-color="#F5F5F5"/><stop offset="100%" stop-color="#F2F2F2"/></linearGradient><linearGradient id="g1bighp8rul0ed1" x1="50%" x2="50%" y1="0%" y2="100%"><stop offset="0%" stop-color="#33B2E2"/><stop offset="100%" stop-color="#009FDB"/></linearGradient><linearGradient id="g1bighp8rul0ed2" x1="50%" x2="50%" y1="0%" y2="100%"><stop offset="0%" stop-color="#3786BE"/><stop offset="100%" stop-color="#0568AE"/></linearGradient></defs><g><g class="title" data-source-line="2"><rect fill="url(#g1bighp8rul0ed0)" height="53.418" rx="4.1667" ry="4.1667" style="stroke:#C2C2C2;stroke-width:1.0417;" width="386.4868" x="219.1907" y="20.8333"/><text fill="#009FDB" font-family="'Verdana'" font-size="20.8333" font-weight="bold" lengthAdjust="spacing" textLength="357.3201" x="233.774" y="54.7546">Arquitetura de Gera&#231;&#227;o de IDs</text></g><!--entity Service--><g class="entity" data-entity="Service" data-source-line="4" data-uid="ent0002" id="entity_Service"><rect fill="url(#g1bighp8rul0ed1)" height="62.4674" rx="4.1667" ry="4.1667" style="stroke:#33B2E2;stroke-width:1.0417;" width="135.6405" x="321.3229" y="93.0013"/><rect fill="url(#g1bighp8rul0ed1)" height="10.4167" style="stroke:#33B2E2;stroke-width:1.0417;" width="15.625" x="436.13" y="98.2096"/><rect fill="url(#g1bighp8rul0ed1)" height="2.0833" style="stroke:#33B2E2;stroke-width:1.0417;" width="4.1667" x="434.0467" y="100.293"/><rect fill="url(#g1bighp8rul0ed1)" height="2.0833" style="stroke:#33B2E2;stroke-width:1.0417;" width="4.1667" x="434.0467" y="104.4596"/><text fill="#FFFFFF" font-family="'Verdana'" font-size="12.5" lengthAdjust="spacing" textLength="77.3071" x="345.2813" y="133.7708">BookService</text></g><!--entity Factory--><g class="entity" data-entity="Factory" data-source-line="7" data-uid="ent0003" id="entity_Factory"><rect fill="url(#g1bighp8rul0ed1)" height="62.4674" rx="4.1667" ry="4.1667" style="stroke:#33B2E2;stroke-width:1.0417;" width="136.2508" x="321.0104" y="223.1367"/><rect fill="url(#g1bighp8rul0ed1)" height="10.4167" style="stroke:#33B2E2;stroke-width:1.0417;" width="15.625" x="436.4279" y="228.3451"/><rect fill="url(#g1bighp8rul0ed1)" height="2.0833" style="stroke:#33B2E2;stroke-width:1.0417;" width="4.1667" x="434.3446" y="230.4284"/><rect fill="url(#g1bighp8rul0ed1)" height="2.0833" style="stroke:#33B2E2;stroke-width:1.0417;" width="4.1667" x="434.3446" y="234.5951"/><text fill="#FFFFFF" font-family="'Verdana'" font-size="12.5" lengthAdjust="spacing" textLength="77.9175" x="344.9688" y="263.9062">BookFactory</text></g><!--entity GenreFactory--><g class="entity" data-entity="GenreFactory" data-source-line="8" data-uid="ent0004" id="entity_GenreFactory"><rect fill="url(#g1bighp8rul0ed1)" height="62.4674" rx="4.1667" ry="4.1667" style="stroke:#33B2E2;stroke-width:1.0417;" width="143.2699" x="600.8333" y="223.1367"/><rect fill="url(#g1bighp8rul0ed1)" height="10.4167" style="stroke:#33B2E2;stroke-width:1.0417;" width="15.625" x="723.2699" y="228.3451"/><rect fill="url(#g1bighp8rul0ed1)" height="2.0833" style="stroke:#33B2E2;stroke-width:1.0417;" width="4.1667" x="721.1865" y="230.4284"/><rect fill="url(#g1bighp8rul0ed1)" height="2.0833" style="stroke:#33B2E2;stroke-width:1.0417;" width="4.1667" x="721.1865" y="234.5951"/><text fill="#FFFFFF" font-family="'Verdana'" font-size="12.5" lengthAdjust="spacing" textLength="84.9365" x="624.7917" y="263.9062">GenreFactory</text></g><!--entity IGen--><g class="entity" data-entity="IGen" data-source-line="11" data-uid="ent0005" id="entity_IGen"><ellipse cx="438.0938" cy="427.1784" fill="#D95555" rx="8.3333" ry="8.3333" style="stroke:#CF2A2A;stroke-width:1.0417;"/><text fill="#5A5A5A" font-family="'Verdana'" font-size="12.5" lengthAdjust="spacing" textLength="75.0977" x="400.5449" y="464.8228">IdGenerator</text></g><!--entity Hexa--><g class="entity" data-entity="Hexa" data-source-line="12" data-uid="ent0006" id="entity_Hexa"><rect fill="url(#g1bighp8rul0ed1)" height="77.0182" rx="4.1667" ry="4.1667" style="stroke:#33B2E2;stroke-width:1.0417;" width="162.1175" x="234.125" y="533.3555"/><rect fill="url(#g1bighp8rul0ed1)" height="10.4167" style="stroke:#33B2E2;stroke-width:1.0417;" width="15.625" x="375.4092" y="538.5638"/><rect fill="url(#g1bighp8rul0ed1)" height="2.0833" style="stroke:#33B2E2;stroke-width:1.0417;" width="4.1667" x="373.3258" y="540.6471"/><rect fill="url(#g1bighp8rul0ed1)" height="2.0833" style="stroke:#33B2E2;stroke-width:1.0417;" width="4.1667" x="373.3258" y="544.8138"/><text fill="#FFFFFF" font-family="'Verdana'" font-size="12.5" lengthAdjust="spacing" textLength="95.6238" x="258.0833" y="574.1249">HexaGenerator</text><text fill="#FFFFFF" font-family="'Verdana'" font-size="12.5" lengthAdjust="spacing" textLength="103.7842" x="258.0833" y="588.6757">@Profile("hexa")</text></g><!--entity Hash--><g class="entity" data-entity="Hash" data-source-line="13" data-uid="ent0007" id="entity_Hash"><rect fill="url(#g1bighp8rul0ed1)" height="77.0182" rx="4.1667" ry="4.1667" style="stroke:#33B2E2;stroke-width:1.0417;" width="177.1505" x="432.8542" y="533.3555"/><rect fill="url(#g1bighp8rul0ed1)" height="10.4167" style="stroke:#33B2E2;stroke-width:1.0417;" width="15.625" x="589.1713" y="538.5638"/><rect fill="url(#g1bighp8rul0ed1)" height="2.0833" style="stroke:#33B2E2;stroke-width:1.0417;" width="4.1667" x="587.088" y="540.6471"/><rect fill="url(#g1bighp8rul0ed1)" height="2.0833" style="stroke:#33B2E2;stroke-width:1.0417;" width="4.1667" x="587.088" y="544.8138"/><text fill="#FFFFFF" font-family="'Verdana'" font-size="12.5" lengthAdjust="spacing" textLength="109.8206" x="456.8125" y="574.1249">Base65Generator</text><text fill="#FFFFFF" font-family="'Verdana'" font-size="12.5" lengthAdjust="spacing" textLength="118.8171" x="456.8125" y="588.6757">@Profile("base65")</text></g><!--entity Book--><g class="entity" data-entity="Book" data-source-line="16" data-uid="ent0008" id="entity_Book"><rect fill="url(#g1bighp8rul0ed1)" height="62.4674" rx="4.1667" ry="4.1667" style="stroke:#33B2E2;stroke-width:1.0417;" width="89.443" x="295.4583" y="395.9388"/><rect fill="url(#g1bighp8rul0ed1)" height="10.4167" style="stroke:#33B2E2;stroke-width:1.0417;" width="15.625" x="364.068" y="401.1471"/><rect fill="url(#g1bighp8rul0ed1)" height="2.0833" style="stroke:#33B2E2;stroke-width:1.0417;" width="4.1667" x="361.9846" y="403.2305"/><rect fill="url(#g1bighp8rul0ed1)" height="2.0833" style="stroke:#33B2E2;stroke-width:1.0417;" width="4.1667" x="361.9846" y="407.3971"/><text fill="#FFFFFF" font-family="'Verdana'" font-size="12.5" lengthAdjust="spacing" textLength="31.1096" x="319.4167" y="436.7083">Book</text></g><!--entity Genre--><g class="entity" data-entity="Genre" data-source-line="17" data-uid="ent0009" id="entity_Genre"><rect fill="url(#g1bighp8rul0ed1)" height="62.4674" rx="4.1667" ry="4.1667" style="stroke:#33B2E2;stroke-width:1.0417;" width="96.462" x="726.3229" y="395.9388"/><rect fill="url(#g1bighp8rul0ed1)" height="10.4167" style="stroke:#33B2E2;stroke-width:1.0417;" width="15.625" x="801.9516" y="401.1471"/><rect fill="url(#g1bighp8rul0ed1)" height="2.0833" style="stroke:#33B2E2;stroke-width:1.0417;" width="4.1667" x="799.8682" y="403.2305"/><rect fill="url(#g1bighp8rul0ed1)" height="2.0833" style="stroke:#33B2E2;stroke-width:1.0417;" width="4.1667" x="799.8682" y="407.3971"/><text fill="#FFFFFF" font-family="'Verdana'" font-size="12.5" lengthAdjust="spacing" textLength="38.1287" x="750.2813" y="436.7083">Genre</text></g><g class="entity" data-entity="GMN19" data-source-line="40" data-uid="ent0020" id="entity_GMN19"><path d="M484.1042,394.9492 L484.1042,423.0117 L447.9896,427.1784 L484.1042,431.3451 L484.1042,459.4023 A10.4167,10.4167 0 0 0 494.5208,469.819 L679.5876,469.819 A10.4167,10.4167 0 0 0 690.0042,459.4023 L690.0042,394.9492 L679.5876,384.5326 L494.5208,384.5326 A10.4167,10.4167 0 0 0 484.1042,394.9492" fill="url(#g1bighp8rul0ed2)" style="stroke:#0568AE;stroke-width:1.0417;"/><path d="M679.5876,384.5326 L679.5876,389.7409 A5.2083,5.2083 0 0 0 684.7959,394.9492 L690.0042,394.9492 L679.5876,384.5326" fill="url(#g1bighp8rul0ed2)" style="stroke:#0568AE;stroke-width:1.0417;"/><text fill="#FFFFFF" font-family="'Verdana'" font-size="12.5" lengthAdjust="spacing" textLength="135.0342" x="498.6875" y="409.677">Interface IdGenerator</text><text fill="#FFFFFF" font-family="'Verdana'" font-size="12.5" lengthAdjust="spacing" textLength="144.9341" x="498.6875" y="424.2278">fornecida por m&#250;ltiplas</text><text fill="#FFFFFF" font-family="'Verdana'" font-size="12.5" lengthAdjust="spacing" textLength="167.3584" x="498.6875" y="438.7786">implementa&#231;&#245;es baseadas</text><text fill="#FFFFFF" font-family="'Verdana'" font-size="12.5" lengthAdjust="spacing" textLength="114.0259" x="498.6875" y="453.3293">em Spring Profiles</text></g><g class="entity" data-entity="GMN22" data-source-line="47" data-uid="ent0023" id="entity_GMN22"><path d="M16.6667,229.418 L16.6667,279.3203 A10.4167,10.4167 0 0 0 27.0833,289.737 L274.113,289.737 A10.4167,10.4167 0 0 0 284.5296,279.3203 L284.5296,258.543 L320.6563,254.3763 L284.5296,250.2096 L284.5296,229.418 L274.113,219.0013 L27.0833,219.0013 A10.4167,10.4167 0 0 0 16.6667,229.418" fill="url(#g1bighp8rul0ed2)" style="stroke:#0568AE;stroke-width:1.0417;"/><path d="M274.113,219.0013 L274.113,224.2096 A5.2083,5.2083 0 0 0 279.3213,229.418 L284.5296,229.418 L274.113,219.0013" fill="url(#g1bighp8rul0ed2)" style="stroke:#0568AE;stroke-width:1.0417;"/><text fill="#FFFFFF" font-family="'Verdana'" font-size="12.5" lengthAdjust="spacing" textLength="209.5093" x="31.25" y="244.1458">Factory atua como intermedi&#225;rio,</text><text fill="#FFFFFF" font-family="'Verdana'" font-size="12.5" lengthAdjust="spacing" textLength="185.4553" x="31.25" y="258.6965">consumindo IdGenerator sem</text><text fill="#FFFFFF" font-family="'Verdana'" font-size="12.5" lengthAdjust="spacing" textLength="229.3213" x="31.25" y="273.2473">conhecer a implementa&#231;&#227;o concreta</text></g><g class="entity" data-entity="GMN25" data-source-line="53" data-uid="ent0026" id="entity_GMN25"><path d="M245.7396,684.3346 L245.7396,719.6862 A10.4167,10.4167 0 0 0 256.1563,730.1029 L374.2125,730.1029 A10.4167,10.4167 0 0 0 384.6292,719.6862 L384.6292,684.3346 L374.2125,673.918 L319.3438,673.918 L315.1771,610.6367 L311.0104,673.918 L256.1563,673.918 A10.4167,10.4167 0 0 0 245.7396,684.3346" fill="url(#g1bighp8rul0ed2)" style="stroke:#0568AE;stroke-width:1.0417;"/><path d="M374.2125,673.918 L374.2125,679.1263 A5.2083,5.2083 0 0 0 379.4208,684.3346 L384.6292,684.3346 L374.2125,673.918" fill="url(#g1bighp8rul0ed2)" style="stroke:#0568AE;stroke-width:1.0417;"/><text fill="#FFFFFF" font-family="'Verdana'" font-size="12.5" lengthAdjust="spacing" textLength="82.9773" x="260.3229" y="699.0624">Ativa quando</text><text fill="#FFFFFF" font-family="'Verdana'" font-size="12.5" lengthAdjust="spacing" textLength="100.3479" x="260.3229" y="713.6132">profile = "hexa"</text></g><g class="entity" data-entity="GMN28" data-source-line="58" data-uid="ent0029" id="entity_GMN28"><path d="M444.4688,684.3346 L444.4688,719.6862 A10.4167,10.4167 0 0 0 454.8854,730.1029 L587.9746,730.1029 A10.4167,10.4167 0 0 0 598.3913,719.6862 L598.3913,684.3346 L587.9746,673.918 L525.5938,673.918 L521.4271,610.6367 L517.2604,673.918 L454.8854,673.918 A10.4167,10.4167 0 0 0 444.4688,684.3346" fill="url(#g1bighp8rul0ed2)" style="stroke:#0568AE;stroke-width:1.0417;"/><path d="M587.9746,673.918 L587.9746,679.1263 A5.2083,5.2083 0 0 0 593.1829,684.3346 L598.3913,684.3346 L587.9746,673.918" fill="url(#g1bighp8rul0ed2)" style="stroke:#0568AE;stroke-width:1.0417;"/><text fill="#FFFFFF" font-family="'Verdana'" font-size="12.5" lengthAdjust="spacing" textLength="82.9773" x="459.0521" y="699.0624">Ativa quando</text><text fill="#FFFFFF" font-family="'Verdana'" font-size="12.5" lengthAdjust="spacing" textLength="115.3809" x="459.0521" y="713.6132">profile = "base65"</text></g><!--link Service to Factory--><g class="link" data-entity-1="Service" data-entity-2="Factory" data-source-line="22" data-uid="lnk10" id="link_Service_Factory"><path d="M389.1354,155.9492 C389.1354,176.2201 389.1354,196.4388 389.1354,216.6576" fill="none" id="Service-to-Factory" style="stroke:#009FDB;stroke-width:3.125;"/><polygon fill="#009FDB" points="389.1354,222.9076,393.3021,213.5326,389.1354,217.6992,384.9688,213.5326,389.1354,222.9076" style="stroke:#009FDB;stroke-width:3.125;"/></g><!--link Factory to IGen--><g class="link" data-entity-1="Factory" data-entity-2="IGen" data-source-line="25" data-uid="lnk11" id="link_Factory_IGen"><path d="M402.5104,286.0638 C406.9479,296.9596 411.6354,309.3971 415.1771,320.9909 C425.875,356.0117 431.9059,388.7691 434.9579,407.0087" fill="none" id="Factory-to-IGen" style="stroke:#009FDB;stroke-width:3.125;"/><path d="M444.8367,412.6662 A9.375,9.375 0 0 0 427.4591 415.574" fill="none" style="stroke:#009FDB;stroke-width:1.5625;"/></g><!--link IGen to Hexa--><g class="link" data-entity-1="IGen" data-entity-2="Hexa" data-source-line="28" data-uid="lnk13" id="link_IGen_Hexa"><path d="M430.7917,436.8451 C423.6458,445.2721 412.4479,458.4492 402.6771,469.8138 C384.6979,490.7617 364.5208,514.0638 348.0833,533.0013" fill="none" id="IGen-Hexa" style="stroke:#009FDB;stroke-width:3.125;"/></g><!--link IGen to Hash--><g class="link" data-entity-1="IGen" data-entity-2="Hash" data-source-line="29" data-uid="lnk15" id="link_IGen_Hash"><path d="M443.0625,436.7096 C453.8854,455.2409 480.1875,500.2513 499.3438,533.0326" fill="none" id="IGen-Hash" style="stroke:#009FDB;stroke-width:3.125;"/></g><!--link Factory to Book--><g class="link" data-entity-1="Factory" data-entity-2="Book" data-source-line="32" data-uid="lnk16" id="link_Factory_Book"><path d="M355.0625,286.0742 C346.1042,296.1992 337.625,308.1888 332.8854,320.9909 C324,345.0117 325.7142,368.0955 330.2767,389.6164" fill="none" id="Factory-to-Book" style="stroke:#009FDB;stroke-width:3.125;stroke-dasharray:7.2917,7.2917;"/><polygon fill="#009FDB" points="331.5729,395.7305,333.7047,385.6952,330.4927,390.6354,325.5525,387.4234,331.5729,395.7305" style="stroke:#009FDB;stroke-width:3.125;"/><text fill="#5A5A5A" font-family="'Verdana'" font-size="12.5" lengthAdjust="spacing" textLength="55.249" x="342.2604" y="341.9687">&#171;create&#187;</text></g><!--link GenreFactory to Genre--><g class="link" data-entity-1="GenreFactory" data-entity-2="Genre" data-source-line="33" data-uid="lnk17" id="link_GenreFactory_Genre"><path d="M690.7188,285.9388 C709.25,316.918 734.552,359.2418 753.0832,390.221" fill="none" id="GenreFactory-to-Genre" style="stroke:#009FDB;stroke-width:3.125;stroke-dasharray:7.2917,7.2917;"/><polygon fill="#009FDB" points="756.2917,395.5846,755.0548,385.4002,753.618,391.1149,747.9033,389.6782,756.2917,395.5846" style="stroke:#009FDB;stroke-width:3.125;"/><text fill="#5A5A5A" font-family="'Verdana'" font-size="12.5" lengthAdjust="spacing" textLength="55.249" x="739.1354" y="341.9687">&#171;create&#187;</text></g><!--link GenreFactory to IGen--><g class="link" data-entity-1="GenreFactory" data-entity-2="IGen" data-source-line="36" data-uid="lnk18" id="link_GenreFactory_IGen"><path d="M609.0833,286.1159 C565.6458,309.1888 508.4688,343.7513 466.2188,384.5326 C456.0625,394.3451 452.494,399.2556 447.5773,408.2556" fill="none" id="GenreFactory-to-IGen" style="stroke:#009FDB;stroke-width:3.125;"/><path d="M451.8518,418.8067 A9.375,9.375 0 0 0 436.3894 410.3597" fill="none" style="stroke:#009FDB;stroke-width:1.5625;"/></g><!--SRC=[VLCzazGm3EtpAyGsxCwGww1WZXsEOJZICNCbK6XZPME8hPpjx70_Xw5WA2XfQFF7aFErpirnhcmzMNfwafw4cWp1eUdewF0k2peq15VkjjE1GkSG5C4rEUn_zZyuFegtFij0piStp5zlo9rqIPy1FKptB87VOHdOtGtmT1_1QxAEKZGrJ16sEzWKIW19B-PDT2laEKPuJzzmmJxPrnySLxgXxQOMOBCRWaQVYGnwUl7yGV_30Cq_qDTf0OCnNXBQPxxYcJsTwuREurBaRClp_M8Jr-aA9LlFehksWLo5ufWK2bj7ehyZTSPtsVmrpxUZ2XAkC6qZxRCXjkSFUQZOMIh9_2zmw_YarJfm50dohit7i561v9cITXg13ryei8-JeDZqlwtcXTh5nNxG2bx2vMNf20FjzrdQsS5bCAnz9ClABQ0vzB_CebDIn3hUMOtCSY1m-bW7u6eUbE8X7SG-2gKLGYkwcFvl4tJRe1T8tnSr3WYg0HDbRrgdxH6cyV4PMGKnzKIWeMh8VvxscIg63gKWmwFuXfJklplDpyGdrjaPRHMl-kN9Z60jJNM0QswoZmA9XW7lipXm26mYZsa5he8-8TnsA2dasOxiuHMCw_B8_xWGZ_sVrcU9y0y0]--></g></svg>