<svg xmlns="http://www.w3.org/2000/svg" xmlns:xlink="http://www.w3.org/1999/xlink" contentStyleType="text/css" data-diagram-type="DESCRIPTION" height="1135.4167px" preserveAspectRatio="none" style="width:1286px;height:1135px;" version="1.1" viewBox="0 0 1286 1135" width="1286.4583px" zoomAndPan="magnify"><title>Arquitetura de Persist&#234;ncia Multi-SGBD</title><defs><linearGradient id="gg4h8v0rhwe6c0" x1="50%" x2="50%" y1="0%" y2="100%"><stop offset="0%" stop-color="#F5F5F5"/><stop offset="100%" stop-color="#F2F2F2"/></linearGradient><linearGradient id="gg4h8v0rhwe6c1" x1="50%" x2="50%" y1="0%" y2="100%"><stop offset="0%" stop-color="#33B2E2"/><stop offset="100%" stop-color="#009FDB"/></linearGradient><linearGradient id="gg4h8v0rhwe6c2" x1="50%" x2="50%" y1="0%" y2="100%"><stop offset="0%" stop-color="#3786BE"/><stop offset="100%" stop-color="#0568AE"/></linearGradient></defs><g><g class="title" data-source-line="2"><rect fill="url(#gg4h8v0rhwe6c0)" height="53.418" rx="4.1667" ry="4.1667" style="stroke:#C2C2C2;stroke-width:1.0417;" width="494.2749" x="391.5721" y="20.8333"/><text fill="#009FDB" font-family="'Verdana'" font-size="20.8333" font-weight="bold" lengthAdjust="spacing" textLength="465.1082" x="406.1554" y="54.7546">Arquitetura de Persist&#234;ncia Multi-SGBD</text></g><!--cluster Infrastructure--><g class="cluster" data-entity="Infrastructure" data-source-line="18" data-uid="ent0012" id="cluster_Infrastructure"><path d="M551.8542,994.5326 L652.9304,994.5326 A15.625,15.625 0 0 1 663.3471,1004.9492 L670.6388,1032 L941.4375,1032 A10.4167,10.4167 0 0 1 951.8542,1042.4167 L951.8542,1113.2513 A10.4167,10.4167 0 0 1 941.4375,1123.668 L551.8542,1123.668 A10.4167,10.4167 0 0 1 541.4375,1113.2513 L541.4375,1004.9492 A10.4167,10.4167 0 0 1 551.8542,994.5326" fill="none" style="stroke:#33B2E2;stroke-width:2.0833;"/><line style="stroke:#33B2E2;stroke-width:2.0833;" x1="541.4375" x2="670.6388" y1="1032" y2="1032"/><text fill="#009FDB" font-family="'Verdana'" font-size="12.5" font-weight="bold" lengthAdjust="spacing" textLength="98.9929" x="553.9375" y="1016.552">Infrastructure</text></g><!--entity JPA--><g class="entity" data-entity="JPA" data-source-line="19" data-uid="ent0013" id="entity_JPA"><rect fill="url(#gg4h8v0rhwe6c1)" height="62.4674" rx="4.1667" ry="4.1667" style="stroke:#33B2E2;stroke-width:1.0417;" width="144.1305" x="557.9167" y="1044.5326"/><rect fill="url(#gg4h8v0rhwe6c1)" height="10.4167" style="stroke:#33B2E2;stroke-width:1.0417;" width="15.625" x="681.2138" y="1049.7409"/><rect fill="url(#gg4h8v0rhwe6c1)" height="2.0833" style="stroke:#33B2E2;stroke-width:1.0417;" width="4.1667" x="679.1305" y="1051.8242"/><rect fill="url(#gg4h8v0rhwe6c1)" height="2.0833" style="stroke:#33B2E2;stroke-width:1.0417;" width="4.1667" x="679.1305" y="1055.9909"/><text fill="#FFFFFF" font-family="'Verdana'" font-size="12.5" lengthAdjust="spacing" textLength="85.7971" x="581.875" y="1085.302">JPA/Hibernate</text></g><!--entity MongoDB--><g class="entity" data-entity="MongoDB" data-source-line="20" data-uid="ent0014" id="entity_MongoDB"><rect fill="url(#gg4h8v0rhwe6c1)" height="62.4674" rx="4.1667" ry="4.1667" style="stroke:#33B2E2;stroke-width:1.0417;" width="196.6024" x="738.9792" y="1044.5326"/><rect fill="url(#gg4h8v0rhwe6c1)" height="10.4167" style="stroke:#33B2E2;stroke-width:1.0417;" width="15.625" x="914.7482" y="1049.7409"/><rect fill="url(#gg4h8v0rhwe6c1)" height="2.0833" style="stroke:#33B2E2;stroke-width:1.0417;" width="4.1667" x="912.6649" y="1051.8242"/><rect fill="url(#gg4h8v0rhwe6c1)" height="2.0833" style="stroke:#33B2E2;stroke-width:1.0417;" width="4.1667" x="912.6649" y="1055.9909"/><text fill="#FFFFFF" font-family="'Verdana'" font-size="12.5" lengthAdjust="spacing" textLength="138.269" x="762.9375" y="1085.302">Spring Data MongoDB</text></g><!--entity Service--><g class="entity" data-entity="Service" data-source-line="4" data-uid="ent0002" id="entity_Service"><rect fill="url(#gg4h8v0rhwe6c1)" height="62.4674" rx="4.1667" ry="4.1667" style="stroke:#33B2E2;stroke-width:1.0417;" width="135.6405" x="521.5417" y="93.0013"/><rect fill="url(#gg4h8v0rhwe6c1)" height="10.4167" style="stroke:#33B2E2;stroke-width:1.0417;" width="15.625" x="636.3488" y="98.2096"/><rect fill="url(#gg4h8v0rhwe6c1)" height="2.0833" style="stroke:#33B2E2;stroke-width:1.0417;" width="4.1667" x="634.2655" y="100.293"/><rect fill="url(#gg4h8v0rhwe6c1)" height="2.0833" style="stroke:#33B2E2;stroke-width:1.0417;" width="4.1667" x="634.2655" y="104.4596"/><text fill="#FFFFFF" font-family="'Verdana'" font-size="12.5" lengthAdjust="spacing" textLength="77.3071" x="545.5" y="133.7708">BookService</text></g><!--entity Repo--><g class="entity" data-entity="Repo" data-source-line="6" data-uid="ent0003" id="entity_Repo"><ellipse cx="589.3542" cy="261.6576" fill="#D95555" rx="8.3333" ry="8.3333" style="stroke:#CF2A2A;stroke-width:1.0417;"/><text fill="#5A5A5A" font-family="'Verdana'" font-size="12.5" lengthAdjust="spacing" textLength="98.1384" x="540.285" y="299.302">BookRepository</text></g><!--entity SQLRepo--><g class="entity" data-entity="SQLRepo" data-source-line="7" data-uid="ent0004" id="entity_SQLRepo"><rect fill="url(#gg4h8v0rhwe6c1)" height="77.0182" rx="4.1667" ry="4.1667" style="stroke:#33B2E2;stroke-width:1.0417;" width="181.2093" x="243.5417" y="367.8451"/><rect fill="url(#gg4h8v0rhwe6c1)" height="10.4167" style="stroke:#33B2E2;stroke-width:1.0417;" width="15.625" x="403.9176" y="373.0534"/><rect fill="url(#gg4h8v0rhwe6c1)" height="2.0833" style="stroke:#33B2E2;stroke-width:1.0417;" width="4.1667" x="401.8343" y="375.1367"/><rect fill="url(#gg4h8v0rhwe6c1)" height="2.0833" style="stroke:#33B2E2;stroke-width:1.0417;" width="4.1667" x="401.8343" y="379.3034"/><text fill="#FFFFFF" font-family="'Verdana'" font-size="12.5" lengthAdjust="spacing" textLength="122.876" x="267.5" y="408.6145">SQLBookRepository</text><text fill="#FFFFFF" font-family="'Verdana'" font-size="12.5" lengthAdjust="spacing" textLength="91.0339" x="267.5" y="423.1653">@Profile("sql")</text></g><!--entity MongoRepo--><g class="entity" data-entity="MongoRepo" data-source-line="8" data-uid="ent0005" id="entity_MongoRepo"><rect fill="url(#gg4h8v0rhwe6c1)" height="77.0182" rx="4.1667" ry="4.1667" style="stroke:#33B2E2;stroke-width:1.0417;" width="198.409" x="722.4479" y="367.8451"/><rect fill="url(#gg4h8v0rhwe6c1)" height="10.4167" style="stroke:#33B2E2;stroke-width:1.0417;" width="15.625" x="900.0236" y="373.0534"/><rect fill="url(#gg4h8v0rhwe6c1)" height="2.0833" style="stroke:#33B2E2;stroke-width:1.0417;" width="4.1667" x="897.9403" y="375.1367"/><rect fill="url(#gg4h8v0rhwe6c1)" height="2.0833" style="stroke:#33B2E2;stroke-width:1.0417;" width="4.1667" x="897.9403" y="379.3034"/><text fill="#FFFFFF" font-family="'Verdana'" font-size="12.5" lengthAdjust="spacing" textLength="140.0757" x="746.4063" y="408.6145">MongoBookRepository</text><text fill="#FFFFFF" font-family="'Verdana'" font-size="12.5" lengthAdjust="spacing" textLength="116.4429" x="746.4063" y="423.1653">@Profile("mongo")</text></g><!--entity Mapper--><g class="entity" data-entity="Mapper" data-source-line="10" data-uid="ent0006" id="entity_Mapper"><ellipse cx="567.4792" cy="551.043" fill="#D95555" rx="8.3333" ry="8.3333" style="stroke:#CF2A2A;stroke-width:1.0417;"/><text fill="#5A5A5A" font-family="'Verdana'" font-size="12.5" lengthAdjust="spacing" textLength="78.2532" x="528.3526" y="588.6874">BookMapper</text></g><!--entity SQLMapper--><g class="entity" data-entity="SQLMapper" data-source-line="11" data-uid="ent0007" id="entity_SQLMapper"><rect fill="url(#gg4h8v0rhwe6c1)" height="77.0182" rx="4.1667" ry="4.1667" style="stroke:#33B2E2;stroke-width:1.0417;" width="161.3241" x="338.9063" y="688.4805"/><rect fill="url(#gg4h8v0rhwe6c1)" height="10.4167" style="stroke:#33B2E2;stroke-width:1.0417;" width="15.625" x="479.397" y="693.6888"/><rect fill="url(#gg4h8v0rhwe6c1)" height="2.0833" style="stroke:#33B2E2;stroke-width:1.0417;" width="4.1667" x="477.3136" y="695.7721"/><rect fill="url(#gg4h8v0rhwe6c1)" height="2.0833" style="stroke:#33B2E2;stroke-width:1.0417;" width="4.1667" x="477.3136" y="699.9388"/><text fill="#FFFFFF" font-family="'Verdana'" font-size="12.5" lengthAdjust="spacing" textLength="102.9907" x="362.8646" y="729.2499">SQLBookMapper</text><text fill="#FFFFFF" font-family="'Verdana'" font-size="12.5" lengthAdjust="spacing" textLength="91.0339" x="362.8646" y="743.8007">@Profile("sql")</text></g><!--entity MongoMapper--><g class="entity" data-entity="MongoMapper" data-source-line="12" data-uid="ent0008" id="entity_MongoMapper"><rect fill="url(#gg4h8v0rhwe6c1)" height="77.0182" rx="4.1667" ry="4.1667" style="stroke:#33B2E2;stroke-width:1.0417;" width="178.5238" x="536.5521" y="688.4805"/><rect fill="url(#gg4h8v0rhwe6c1)" height="10.4167" style="stroke:#33B2E2;stroke-width:1.0417;" width="15.625" x="694.2425" y="693.6888"/><rect fill="url(#gg4h8v0rhwe6c1)" height="2.0833" style="stroke:#33B2E2;stroke-width:1.0417;" width="4.1667" x="692.1592" y="695.7721"/><rect fill="url(#gg4h8v0rhwe6c1)" height="2.0833" style="stroke:#33B2E2;stroke-width:1.0417;" width="4.1667" x="692.1592" y="699.9388"/><text fill="#FFFFFF" font-family="'Verdana'" font-size="12.5" lengthAdjust="spacing" textLength="120.1904" x="560.5104" y="729.2499">MongoBookMapper</text><text fill="#FFFFFF" font-family="'Verdana'" font-size="12.5" lengthAdjust="spacing" textLength="116.4429" x="560.5104" y="743.8007">@Profile("mongo")</text></g><!--entity Book--><g class="entity" data-entity="Book" data-source-line="14" data-uid="ent0009" id="entity_Book"><rect fill="url(#gg4h8v0rhwe6c1)" height="77.0182" rx="4.1667" ry="4.1667" style="stroke:#33B2E2;stroke-width:1.0417;" width="122.1334" x="358.5" y="864.4284"/><rect fill="url(#gg4h8v0rhwe6c1)" height="10.4167" style="stroke:#33B2E2;stroke-width:1.0417;" width="15.625" x="459.8" y="869.6367"/><rect fill="url(#gg4h8v0rhwe6c1)" height="2.0833" style="stroke:#33B2E2;stroke-width:1.0417;" width="4.1667" x="457.7167" y="871.7201"/><rect fill="url(#gg4h8v0rhwe6c1)" height="2.0833" style="stroke:#33B2E2;stroke-width:1.0417;" width="4.1667" x="457.7167" y="875.8867"/><text fill="#FFFFFF" font-family="'Verdana'" font-size="12.5" lengthAdjust="spacing" textLength="31.1096" x="382.4583" y="905.1978">Book</text><text fill="#FFFFFF" font-family="'Verdana'" font-size="12.5" lengthAdjust="spacing" textLength="63.8" x="382.4583" y="919.7486">&#171;Domain&#187;</text></g><!--entity SQLEntity--><g class="entity" data-entity="SQLEntity" data-source-line="15" data-uid="ent0010" id="entity_SQLEntity"><rect fill="url(#gg4h8v0rhwe6c1)" height="77.0182" rx="4.1667" ry="4.1667" style="stroke:#33B2E2;stroke-width:1.0417;" width="150.6734" x="171.3125" y="864.4284"/><rect fill="url(#gg4h8v0rhwe6c1)" height="10.4167" style="stroke:#33B2E2;stroke-width:1.0417;" width="15.625" x="301.1526" y="869.6367"/><rect fill="url(#gg4h8v0rhwe6c1)" height="2.0833" style="stroke:#33B2E2;stroke-width:1.0417;" width="4.1667" x="299.0693" y="871.7201"/><rect fill="url(#gg4h8v0rhwe6c1)" height="2.0833" style="stroke:#33B2E2;stroke-width:1.0417;" width="4.1667" x="299.0693" y="875.8867"/><text fill="#FFFFFF" font-family="'Verdana'" font-size="12.5" lengthAdjust="spacing" textLength="92.3401" x="195.2708" y="905.1978">BookSQLEntity</text><text fill="#FFFFFF" font-family="'Verdana'" font-size="12.5" lengthAdjust="spacing" textLength="86.6455" x="195.2708" y="919.7486">&#171;Data Model&#187;</text></g><!--entity MongoDoc--><g class="entity" data-entity="MongoDoc" data-source-line="16" data-uid="ent0011" id="entity_MongoDoc"><rect fill="url(#gg4h8v0rhwe6c1)" height="77.0182" rx="4.1667" ry="4.1667" style="stroke:#33B2E2;stroke-width:1.0417;" width="196.1385" x="867.3333" y="864.4284"/><rect fill="url(#gg4h8v0rhwe6c1)" height="10.4167" style="stroke:#33B2E2;stroke-width:1.0417;" width="15.625" x="1042.6385" y="869.6367"/><rect fill="url(#gg4h8v0rhwe6c1)" height="2.0833" style="stroke:#33B2E2;stroke-width:1.0417;" width="4.1667" x="1040.5552" y="871.7201"/><rect fill="url(#gg4h8v0rhwe6c1)" height="2.0833" style="stroke:#33B2E2;stroke-width:1.0417;" width="4.1667" x="1040.5552" y="875.8867"/><text fill="#FFFFFF" font-family="'Verdana'" font-size="12.5" lengthAdjust="spacing" textLength="137.8052" x="891.2917" y="905.1978">BookMongoDocument</text><text fill="#FFFFFF" font-family="'Verdana'" font-size="12.5" lengthAdjust="spacing" textLength="86.6455" x="891.2917" y="919.7486">&#171;Data Model&#187;</text></g><g class="entity" data-entity="GMN34" data-source-line="54" data-uid="ent0035" id="entity_GMN34"><path d="M634.7188,229.4284 L634.7188,257.4909 L599,261.6576 L634.7188,265.8242 L634.7188,293.8815 A10.4167,10.4167 0 0 0 645.1354,304.2982 L862.7461,304.2982 A10.4167,10.4167 0 0 0 873.1628,293.8815 L873.1628,229.4284 L862.7461,219.0117 L645.1354,219.0117 A10.4167,10.4167 0 0 0 634.7188,229.4284" fill="url(#gg4h8v0rhwe6c2)" style="stroke:#0568AE;stroke-width:1.0417;"/><path d="M862.7461,219.0117 L862.7461,224.2201 A5.2083,5.2083 0 0 0 867.9544,229.4284 L873.1628,229.4284 L862.7461,219.0117" fill="url(#gg4h8v0rhwe6c2)" style="stroke:#0568AE;stroke-width:1.0417;"/><text fill="#FFFFFF" font-family="'Verdana'" font-size="12.5" lengthAdjust="spacing" textLength="158.075" x="649.3021" y="244.1562">Interface BookRepository</text><text fill="#FFFFFF" font-family="'Verdana'" font-size="12.5" lengthAdjust="spacing" textLength="191.2292" x="649.3021" y="258.7069">fornecida por implementa&#231;&#245;es</text><text fill="#FFFFFF" font-family="'Verdana'" font-size="12.5" lengthAdjust="spacing" textLength="166.5588" x="649.3021" y="273.2577">espec&#237;ficas de cada SGBD,</text><text fill="#FFFFFF" font-family="'Verdana'" font-size="12.5" lengthAdjust="spacing" textLength="199.9023" x="649.3021" y="287.8085">selecionadas por Spring Profiles</text></g><g class="entity" data-entity="GMN37" data-source-line="61" data-uid="ent0038" id="entity_GMN37"><path d="M321.1875,518.8138 L321.1875,583.2669 A10.4167,10.4167 0 0 0 331.6042,593.6836 L511.6965,593.6836 A10.4167,10.4167 0 0 0 522.1132,583.2669 L522.1132,555.2096 L557.6354,551.043 L522.1132,546.8763 L522.1132,518.8138 L511.6965,508.3971 L331.6042,508.3971 A10.4167,10.4167 0 0 0 321.1875,518.8138" fill="url(#gg4h8v0rhwe6c2)" style="stroke:#0568AE;stroke-width:1.0417;"/><path d="M511.6965,508.3971 L511.6965,513.6055 A5.2083,5.2083 0 0 0 516.9049,518.8138 L522.1132,518.8138 L511.6965,508.3971" fill="url(#gg4h8v0rhwe6c2)" style="stroke:#0568AE;stroke-width:1.0417;"/><text fill="#FFFFFF" font-family="'Verdana'" font-size="12.5" lengthAdjust="spacing" textLength="162.384" x="335.7708" y="533.5416">Mappers convertem entre</text><text fill="#FFFFFF" font-family="'Verdana'" font-size="12.5" lengthAdjust="spacing" textLength="158.783" x="335.7708" y="548.0924">objetos de dom&#237;nio puros</text><text fill="#FFFFFF" font-family="'Verdana'" font-size="12.5" lengthAdjust="spacing" textLength="162.2803" x="335.7708" y="562.6431">e data models espec&#237;ficos</text><text fill="#FFFFFF" font-family="'Verdana'" font-size="12.5" lengthAdjust="spacing" textLength="95.3796" x="335.7708" y="577.1939">de persist&#234;ncia</text></g><g class="entity" data-entity="GMN40" data-source-line="68" data-uid="ent0041" id="entity_GMN40"><path d="M16.6667,518.8138 L16.6667,583.2669 A10.4167,10.4167 0 0 0 27.0833,593.6836 L157.8837,593.6836 A10.4167,10.4167 0 0 0 168.3004,583.2669 L168.3004,518.8138 L157.8837,508.3971 L27.0833,508.3971 A10.4167,10.4167 0 0 0 16.6667,518.8138" fill="url(#gg4h8v0rhwe6c2)" style="stroke:#0568AE;stroke-width:1.0417;"/><path d="M157.8837,508.3971 L157.8837,513.6055 A5.2083,5.2083 0 0 0 163.092,518.8138 L168.3004,518.8138 L157.8837,508.3971" fill="url(#gg4h8v0rhwe6c2)" style="stroke:#0568AE;stroke-width:1.0417;"/><text fill="#FFFFFF" font-family="'Verdana'" font-size="12.5" lengthAdjust="spacing" textLength="82.9773" x="31.25" y="533.5416">Ativa quando</text><text fill="#FFFFFF" font-family="'Verdana'" font-size="12.5" lengthAdjust="spacing" textLength="87.5977" x="31.25" y="548.0924">profile = "sql"</text><text fill="#FFFFFF" font-family="'Verdana'" font-size="12.5" lengthAdjust="spacing" textLength="3.9734" x="31.25" y="562.6431">&#160;</text><text fill="#FFFFFF" font-family="'Verdana'" font-size="12.5" lengthAdjust="spacing" textLength="113.092" x="31.25" y="577.1939">Usa JPA/Hibernate</text></g><g class="entity" data-entity="GMN43" data-source-line="75" data-uid="ent0044" id="entity_GMN43"><path d="M959.1771,518.8138 L959.1771,583.2669 A10.4167,10.4167 0 0 0 969.5938,593.6836 L1152.866,593.6836 A10.4167,10.4167 0 0 0 1163.2827,583.2669 L1163.2827,518.8138 L1152.866,508.3971 L994.7708,508.3971 L885.2292,445.2305 L986.4375,508.3971 L969.5938,508.3971 A10.4167,10.4167 0 0 0 959.1771,518.8138" fill="url(#gg4h8v0rhwe6c2)" style="stroke:#0568AE;stroke-width:1.0417;"/><path d="M1152.866,508.3971 L1152.866,513.6055 A5.2083,5.2083 0 0 0 1158.0744,518.8138 L1163.2827,518.8138 L1152.866,508.3971" fill="url(#gg4h8v0rhwe6c2)" style="stroke:#0568AE;stroke-width:1.0417;"/><text fill="#FFFFFF" font-family="'Verdana'" font-size="12.5" lengthAdjust="spacing" textLength="82.9773" x="973.7604" y="533.5416">Ativa quando</text><text fill="#FFFFFF" font-family="'Verdana'" font-size="12.5" lengthAdjust="spacing" textLength="113.0066" x="973.7604" y="548.0924">profile = "mongo"</text><text fill="#FFFFFF" font-family="'Verdana'" font-size="12.5" lengthAdjust="spacing" textLength="3.9734" x="973.7604" y="562.6431">&#160;</text><text fill="#FFFFFF" font-family="'Verdana'" font-size="12.5" lengthAdjust="spacing" textLength="165.564" x="973.7604" y="577.1939">Usa Spring Data MongoDB</text></g><g class="entity" data-entity="GMN46" data-source-line="82" data-uid="ent0047" id="entity_GMN46"><path d="M517.1875,877.9805 L517.1875,898.7617 L480.9688,902.9284 L517.1875,907.0951 L517.1875,927.8828 A10.4167,10.4167 0 0 0 527.6042,938.2995 L640.6921,938.2995 A10.4167,10.4167 0 0 0 651.1088,927.8828 L651.1088,877.9805 L640.6921,867.5638 L527.6042,867.5638 A10.4167,10.4167 0 0 0 517.1875,877.9805" fill="url(#gg4h8v0rhwe6c2)" style="stroke:#0568AE;stroke-width:1.0417;"/><path d="M640.6921,867.5638 L640.6921,872.7721 A5.2083,5.2083 0 0 0 645.9005,877.9805 L651.1088,877.9805 L640.6921,867.5638" fill="url(#gg4h8v0rhwe6c2)" style="stroke:#0568AE;stroke-width:1.0417;"/><text fill="#FFFFFF" font-family="'Verdana'" font-size="12.5" lengthAdjust="spacing" textLength="88.5559" x="531.7708" y="892.7083">Dom&#237;nio puro,</text><text fill="#FFFFFF" font-family="'Verdana'" font-size="12.5" lengthAdjust="spacing" textLength="94.8669" x="531.7708" y="907.259">sem anota&#231;&#245;es</text><text fill="#FFFFFF" font-family="'Verdana'" font-size="12.5" lengthAdjust="spacing" textLength="95.3796" x="531.7708" y="921.8098">de persist&#234;ncia</text></g><g class="entity" data-entity="GMN49" data-source-line="88" data-uid="ent0050" id="entity_GMN49"><path d="M687.3125,870.7096 L687.3125,935.1628 A10.4167,10.4167 0 0 0 697.7292,945.5794 L820.5645,945.5794 A10.4167,10.4167 0 0 0 830.9811,935.1628 L830.9811,870.7096 L820.5645,860.293 L697.7292,860.293 A10.4167,10.4167 0 0 0 687.3125,870.7096" fill="url(#gg4h8v0rhwe6c2)" style="stroke:#0568AE;stroke-width:1.0417;"/><path d="M820.5645,860.293 L820.5645,865.5013 A5.2083,5.2083 0 0 0 825.7728,870.7096 L830.9811,870.7096 L820.5645,860.293" fill="url(#gg4h8v0rhwe6c2)" style="stroke:#0568AE;stroke-width:1.0417;"/><text fill="#FFFFFF" font-family="'Verdana'" font-size="12.5" lengthAdjust="spacing" textLength="48.9929" x="701.8958" y="885.4374">@Entity</text><text fill="#FFFFFF" font-family="'Verdana'" font-size="12.5" lengthAdjust="spacing" textLength="105.127" x="701.8958" y="899.9882">@Table("books")</text><text fill="#FFFFFF" font-family="'Verdana'" font-size="12.5" lengthAdjust="spacing" textLength="3.9734" x="701.8958" y="914.539">&#160;</text><text fill="#FFFFFF" font-family="'Verdana'" font-size="12.5" lengthAdjust="spacing" textLength="89.1541" x="701.8958" y="929.0898">Anota&#231;&#245;es JPA</text></g><g class="entity" data-entity="GMN52" data-source-line="95" data-uid="ent0053" id="entity_GMN52"><path d="M1100.2604,877.9805 L1100.2604,898.7617 L1063.7708,902.9284 L1100.2604,907.0951 L1100.2604,927.8828 A10.4167,10.4167 0 0 0 1110.6771,938.2995 L1263.8774,938.2995 A10.4167,10.4167 0 0 0 1274.294,927.8828 L1274.294,877.9805 L1263.8774,867.5638 L1110.6771,867.5638 A10.4167,10.4167 0 0 0 1100.2604,877.9805" fill="url(#gg4h8v0rhwe6c2)" style="stroke:#0568AE;stroke-width:1.0417;"/><path d="M1263.8774,867.5638 L1263.8774,872.7721 A5.2083,5.2083 0 0 0 1269.0857,877.9805 L1274.294,877.9805 L1263.8774,867.5638" fill="url(#gg4h8v0rhwe6c2)" style="stroke:#0568AE;stroke-width:1.0417;"/><text fill="#FFFFFF" font-family="'Verdana'" font-size="12.5" lengthAdjust="spacing" textLength="135.4919" x="1114.8438" y="892.7083">@Document("books")</text><text fill="#FFFFFF" font-family="'Verdana'" font-size="12.5" lengthAdjust="spacing" textLength="3.9734" x="1114.8438" y="907.259">&#160;</text><text fill="#FFFFFF" font-family="'Verdana'" font-size="12.5" lengthAdjust="spacing" textLength="129.5166" x="1114.8438" y="921.8098">Anota&#231;&#245;es MongoDB</text></g><!--link Service to Repo--><g class="link" data-entity-1="Service" data-entity-2="Repo" data-source-line="24" data-uid="lnk15" id="link_Service_Repo"><path d="M589.3542,155.9909 C589.3542,187.0326 589.3542,222.6159 589.3542,241.5638" fill="none" id="Service-to-Repo" style="stroke:#009FDB;stroke-width:3.125;"/><path d="M598.1638,248.774 A9.375,9.375 0 0 0 580.5445 248.774" fill="none" style="stroke:#009FDB;stroke-width:1.5625;"/></g><!--link Repo to SQLRepo--><g class="link" data-entity-1="Repo" data-entity-2="SQLRepo" data-source-line="27" data-uid="lnk17" id="link_Repo_SQLRepo"><path d="M579.6667,268.1159 C550.8958,284.1888 464.1146,332.6888 401.8958,367.4492" fill="none" id="Repo-SQLRepo" style="stroke:#009FDB;stroke-width:3.125;"/></g><!--link Repo to MongoRepo--><g class="link" data-entity-1="Repo" data-entity-2="MongoRepo" data-source-line="28" data-uid="lnk19" id="link_Repo_MongoRepo"><path d="M593.2396,271.3242 C597.7292,280.4805 605.8646,294.918 616.4375,304.3034 C647.0417,331.4388 686.2396,353.0951 722.1563,369.2826" fill="none" id="Repo-MongoRepo" style="stroke:#009FDB;stroke-width:3.125;"/></g><!--link SQLRepo to Mapper--><g class="link" data-entity-1="SQLRepo" data-entity-2="Mapper" data-source-line="31" data-uid="lnk20" id="link_SQLRepo_Mapper"><path d="M424.7708,439.2201 C463.3021,455.7721 506.9583,478.8034 540.3958,508.3971 C550.9792,517.7721 554.5518,522.8505 559.031,532.0172" fill="none" id="SQLRepo-to-Mapper" style="stroke:#009FDB;stroke-width:3.125;"/><path d="M570.1117,534.6277 A9.375,9.375 0 0 0 554.2812 542.3631" fill="none" style="stroke:#009FDB;stroke-width:1.5625;"/></g><!--link MongoRepo to Mapper--><g class="link" data-entity-1="MongoRepo" data-entity-2="Mapper" data-source-line="32" data-uid="lnk21" id="link_MongoRepo_Mapper"><path d="M754.2083,445.2305 C692.1458,480.0534 614.6258,523.5495 586.0945,539.56" fill="none" id="MongoRepo-to-Mapper" style="stroke:#009FDB;stroke-width:3.125;"/><path d="M584.1178,550.7711 A9.375,9.375 0 0 0 575.4955 535.4058" fill="none" style="stroke:#009FDB;stroke-width:1.5625;"/></g><!--link Mapper to SQLMapper--><g class="link" data-entity-1="Mapper" data-entity-2="SQLMapper" data-source-line="35" data-uid="lnk23" id="link_Mapper_SQLMapper"><path d="M562.4792,560.6471 C557.3125,569.2617 548.8438,582.7826 540.3958,593.6888 C514.5104,627.1367 482.0313,662.3763 457.2604,688.0534" fill="none" id="Mapper-SQLMapper" style="stroke:#009FDB;stroke-width:3.125;"/></g><!--link Mapper to MongoMapper--><g class="link" data-entity-1="Mapper" data-entity-2="MongoMapper" data-source-line="36" data-uid="lnk25" id="link_Mapper_MongoMapper"><path d="M570.3021,560.4701 C577.8958,583.1263 599.2083,646.6471 613.1042,688.0638" fill="none" id="Mapper-MongoMapper" style="stroke:#009FDB;stroke-width:3.125;"/></g><!--link SQLMapper to Book--><g class="link" data-entity-1="SQLMapper" data-entity-2="Book" data-source-line="39" data-uid="lnk26" id="link_SQLMapper_Book"><path d="M419.5625,765.7513 C419.5625,794.8138 419.5625,828.5742 419.5625,857.6888" fill="none" id="SQLMapper-to-Book" style="stroke:#009FDB;stroke-width:3.125;stroke-dasharray:7.2917,7.2917;"/><polygon fill="#009FDB" points="419.5625,863.9388,423.7292,854.5638,419.5625,858.7305,415.3958,854.5638,419.5625,863.9388" style="stroke:#009FDB;stroke-width:3.125;"/><text fill="#5A5A5A" font-family="'Verdana'" font-size="12.5" lengthAdjust="spacing" textLength="99.6765" x="428.9375" y="817.7291">&#171;maps from/to&#187;</text></g><!--link SQLMapper to SQLEntity--><g class="link" data-entity-1="SQLMapper" data-entity-2="SQLEntity" data-source-line="40" data-uid="lnk27" id="link_SQLMapper_SQLEntity"><path d="M338.6563,761.9076 C322.2708,771.4284 306.2083,783.0117 293.5208,796.7513 C276.0313,815.6888 266.2839,836.324 258.9089,858.001" fill="none" id="SQLMapper-to-SQLEntity" style="stroke:#009FDB;stroke-width:3.125;stroke-dasharray:7.2917,7.2917;"/><polygon fill="#009FDB" points="256.8958,863.918,263.8601,856.3846,258.5734,858.9872,255.9708,853.7005,256.8958,863.918" style="stroke:#009FDB;stroke-width:3.125;"/><text fill="#5A5A5A" font-family="'Verdana'" font-size="12.5" lengthAdjust="spacing" textLength="99.6765" x="302.8958" y="817.7291">&#171;maps from/to&#187;</text></g><!--link MongoMapper to Book--><g class="link" data-entity-1="MongoMapper" data-entity-2="Book" data-source-line="42" data-uid="lnk28" id="link_MongoMapper_Book"><path d="M600.9479,765.9492 C586.4167,786.2409 566.8021,810.7513 545.6042,829.043 C534.4583,838.6576 512.8212,851.5767 486.5921,866.1079" fill="none" id="MongoMapper-to-Book" style="stroke:#009FDB;stroke-width:3.125;stroke-dasharray:7.2917,7.2917;"/><polygon fill="#009FDB" points="481.125,869.1367,491.3448,868.2382,485.6809,866.6127,487.3064,860.9488,481.125,869.1367" style="stroke:#009FDB;stroke-width:3.125;"/><text fill="#5A5A5A" font-family="'Verdana'" font-size="12.5" lengthAdjust="spacing" textLength="99.6765" x="585.1875" y="817.7291">&#171;maps from/to&#187;</text></g><!--link MongoMapper to MongoDoc--><g class="link" data-entity-1="MongoMapper" data-entity-2="MongoDoc" data-source-line="43" data-uid="lnk29" id="link_MongoMapper_MongoDoc"><path d="M668.5,765.8555 C693.5729,786.6263 726.6458,811.6159 759.1458,829.043 C796.3125,848.9596 808.9688,846.2617 848.7292,860.293 C854.7188,862.3971 854.9729,862.4884 861.1812,864.6863" fill="none" id="MongoMapper-to-MongoDoc" style="stroke:#009FDB;stroke-width:3.125;stroke-dasharray:7.2917,7.2917;"/><polygon fill="#009FDB" points="867.0729,866.7721,859.6259,859.7156,862.1632,865.034,856.8449,867.5712,867.0729,866.7721" style="stroke:#009FDB;stroke-width:3.125;"/><text fill="#5A5A5A" font-family="'Verdana'" font-size="12.5" lengthAdjust="spacing" textLength="99.6765" x="768.5208" y="817.7291">&#171;maps from/to&#187;</text></g><!--link SQLRepo to SQLEntity--><g class="link" data-entity-1="SQLRepo" data-entity-2="SQLEntity" data-source-line="46" data-uid="lnk30" id="link_SQLRepo_SQLEntity"><path d="M320.8333,445.3763 C314.6563,464.1576 307.6458,487.2721 302.8958,508.3971 C273.9271,637.3346 257.4211,787.3425 250.6398,857.8737" fill="none" id="SQLRepo-to-SQLEntity" style="stroke:#009FDB;stroke-width:3.125;stroke-dasharray:7.2917,7.2917;"/><polygon fill="#009FDB" points="250.0417,864.0951,255.0864,855.1619,250.5401,858.9106,246.7914,854.3643,250.0417,864.0951" style="stroke:#009FDB;stroke-width:3.125;"/><text fill="#5A5A5A" font-family="'Verdana'" font-size="12.5" lengthAdjust="spacing" textLength="57.4585" x="290.3958" y="645.9166">&#171;persist&#187;</text></g><!--link MongoRepo to MongoDoc--><g class="link" data-entity-1="MongoRepo" data-entity-2="MongoDoc" data-source-line="47" data-uid="lnk31" id="link_MongoRepo_MongoDoc"><path d="M832.6875,445.3763 C859.4792,537.5326 925.9427,766.1769 952.6718,858.1144" fill="none" id="MongoRepo-to-MongoDoc" style="stroke:#009FDB;stroke-width:3.125;stroke-dasharray:7.2917,7.2917;"/><polygon fill="#009FDB" points="954.4167,864.1159,955.8004,853.9504,952.9626,859.1146,947.7984,856.2768,954.4167,864.1159" style="stroke:#009FDB;stroke-width:3.125;"/><text fill="#5A5A5A" font-family="'Verdana'" font-size="12.5" lengthAdjust="spacing" textLength="57.4585" x="902.8958" y="645.9166">&#171;persist&#187;</text></g><!--link SQLEntity to JPA--><g class="link" data-entity-1="SQLEntity" data-entity-2="JPA" data-source-line="50" data-uid="lnk32" id="link_SQLEntity_JPA"><path d="M322.3854,937.7096 C391.875,968.668 488.2389,1011.5828 555.4576,1041.5307" fill="none" id="SQLEntity-to-JPA" style="stroke:#009FDB;stroke-width:3.125;"/><polygon fill="#009FDB" points="561.1667,1044.0742,554.2988,1036.4529,556.4091,1041.9546,550.9074,1044.0649,561.1667,1044.0742" style="stroke:#009FDB;stroke-width:3.125;"/></g><!--link MongoDoc to MongoDB--><g class="link" data-entity-1="MongoDoc" data-entity-2="MongoDB" data-source-line="51" data-uid="lnk33" id="link_MongoDoc_MongoDB"><path d="M936.9688,941.8659 C913.8854,972.6263 885.522,1010.4293 864.0428,1039.0543" fill="none" id="MongoDoc-to-MongoDB" style="stroke:#009FDB;stroke-width:3.125;"/><polygon fill="#009FDB" points="860.2917,1044.0534,869.2512,1039.0555,863.4176,1039.8874,862.5857,1034.0539,860.2917,1044.0534" style="stroke:#009FDB;stroke-width:3.125;"/></g><!--link SQLRepo to GMN40--><g class="link" data-entity-1="SQLRepo" data-entity-2="GMN40" data-source-line="68" data-uid="lnk42" id="link_SQLRepo_GMN40"><path d="M253.0521,445.3346 C234.2396,454.8451 214.5,465.4076 196.6458,476.1055 C180.5833,485.7409 163.7708,497.0742 148.4583,507.918" fill="none" id="SQLRepo-GMN40" style="stroke:#009FDB;stroke-width:3.125;stroke-dasharray:7.2917,7.2917;"/></g><!--link SQLEntity to GMN49--><g class="link" data-entity-1="SQLEntity" data-entity-2="GMN49" data-source-line="88" data-uid="lnk51" id="link_SQLEntity_GMN49"><path d="M281.9896,864.0013 C302.2708,844.6159 329.4479,823.168 358.625,812.8971 C481.3333,769.6784 529.0417,768.543 651.3333,812.8971 C677.6979,822.4492 702.1354,841.5951 721.0521,859.7826" fill="none" id="SQLEntity-GMN49" style="stroke:#009FDB;stroke-width:3.125;stroke-dasharray:7.2917,7.2917;"/></g><!--SRC=[XLLDRnCn4BtxLmovq4galQCGDL4H5BLII-3KSd1s9wdfsjxQtg22-3KSa91wv1VaZp7-MEycJKhLWtVc-StRcRUJ5-uM9SAyQd1f-0DpmbK84tFV28UkCHnAX4iqLbYt_gCAmU6YgPmOpjvDJncxdcfzDqEp4WL-0MuXdHaxE8I1Jtx4MblXj7aO-Bn_PDUpg_FDt8qwkJHw8Iey6DZxQd0OoQxE8_v2gwNUVqFwTBeJeE5Mbd31wnfDA1-FMK1yt5kyHUVoJ_5FIgSxiJCtQZGwrP8BDHu7Y0-cfbsTlrNKxOU0uOxwgaki4Yvd8pWmd-gYaQZSpWijWh6Q5tTyYJ0uKml3hJDDGNF40VnWG7_N7oudn-_578tYBiwC8Z4rgurGIqZadd3Q8v-oduozR2SCXLPMatM4ScWMd2BTS5WB6WuFuiZfufciA_GlmDU_rt_Hma8RXGNAFHHn-31iwc7aoAFjnOWttn74cLJ9TjAPXOIaK8-c2n9FFEsKrP75KnJGvziHxrFoxyH7sbRqjFwbWRfW4A8r0A4Rf-qLEJeQ1yF0QnYD9A-9nsXvxFHul8NATja5tH3u7ESshlNKJjAjlZUMo_vhGCrfTzJznP5dyLHnmhKQCcf3GGUYulrIeQCfAqfjOKLRYhmlyPisTw6ZgTPmE0vkpxm-qBgRAUqGZ5ZUEj2BQ2-0iso2pVr3gMWKKT9xQWDYozu4G5jZiNvSY88-8jgZ1IUiNvolA6cneijQKSm6WlJrfTLY6QeIlAGahC95q9NS1TbSqLQE31PSHHaz_ufEXvAbbkj79QW_ZT514vI-TJAshbCOadHXSsHR6kRQEIszYdOr0qoSM76uRxWg_MCTvSCR2BkK8lJ_sNBOs3lxYRlz_HnrNBiT-OxDjLqY3pRiOF0VNzUPE109dA3T_FxNZapPhMk0a-xqYS_zRyIS2jh1OLGxwIe4A-wZp0kTUDhD_mpLzal_0m00]--></g></svg>