<svg xmlns="http://www.w3.org/2000/svg" xmlns:xlink="http://www.w3.org/1999/xlink" contentStyleType="text/css" data-diagram-type="SEQUENCE" height="485px" preserveAspectRatio="none" style="width:425px;height:485px;background:#FFFFFF;" version="1.1" viewBox="0 0 425 485" width="425px" zoomAndPan="magnify"><title>Vista de processo - N&#237;vel 2</title><defs/><g><text fill="#000000" font-family="sans-serif" font-size="14" font-weight="bold" lengthAdjust="spacing" textLength="196.2666" x="115.9558" y="28.5352">Vista de processo - N&#237;vel 2</text><g><title>BackEnd</title><rect fill="#FFFFFF" height="87.9316" style="stroke:#181818;stroke-width:1;" width="10" x="209.9282" y="150.2871"/></g><g><title>BackEnd</title><rect fill="#FFFFFF" height="87.9316" style="stroke:#181818;stroke-width:1;" width="10" x="209.9282" y="291.8398"/></g><g><title>ISBNdb API</title><rect fill="#FFFFFF" height="29.3105" style="stroke:#181818;stroke-width:1;" width="10" x="360.4521" y="179.5977"/></g><g><title>ISBNdb API</title><rect fill="#FFFFFF" height="29.3105" style="stroke:#181818;stroke-width:1;" width="10" x="360.4521" y="321.1504"/></g><rect fill="none" height="134.5527" style="stroke:#000000;stroke-width:1.5;" width="409.1782" x="10" y="253.2188"/><g><title>Cliente</title><rect fill="#000000" fill-opacity="0.00000" height="285.7949" width="8" x="42.6523" y="118.9766"/><line style="stroke:#181818;stroke-width:0.5;stroke-dasharray:5,5;" x1="46" x2="46" y1="118.9766" y2="404.7715"/></g><g><title>BackEnd</title><rect fill="#000000" fill-opacity="0.00000" height="285.7949" width="8" x="210.9282" y="118.9766"/><line style="stroke:#181818;stroke-width:0.5;stroke-dasharray:5,5;" x1="214.8154" x2="214.8154" y1="118.9766" y2="404.7715"/></g><g><title>ISBNdb API</title><rect fill="#000000" fill-opacity="0.00000" height="285.7949" width="8" x="361.4521" y="118.9766"/><line style="stroke:#181818;stroke-width:0.5;stroke-dasharray:5,5;" x1="364.7261" x2="364.7261" y1="118.9766" y2="404.7715"/></g><g class="participant participant-head" data-participant="Client"><text fill="#000000" font-family="sans-serif" font-size="14" lengthAdjust="spacing" textLength="47.3047" x="20" y="116.0234">Cliente</text><ellipse cx="46.6523" cy="50.9883" fill="#E2E2F0" rx="8" ry="8" style="stroke:#181818;stroke-width:0.5;"/><path d="M46.6523,58.9883 L46.6523,85.9883 M33.6523,66.9883 L59.6523,66.9883 M46.6523,85.9883 L33.6523,100.9883 M46.6523,85.9883 L59.6523,100.9883" fill="none" style="stroke:#181818;stroke-width:0.5;"/></g><g class="participant participant-tail" data-participant="Client"><text fill="#000000" font-family="sans-serif" font-size="14" lengthAdjust="spacing" textLength="47.3047" x="20" y="417.3066">Cliente</text><ellipse cx="46.6523" cy="428.7598" fill="#E2E2F0" rx="8" ry="8" style="stroke:#181818;stroke-width:0.5;"/><path d="M46.6523,436.7598 L46.6523,463.7598 M33.6523,444.7598 L59.6523,444.7598 M46.6523,463.7598 L33.6523,478.7598 M46.6523,463.7598 L59.6523,478.7598" fill="none" style="stroke:#181818;stroke-width:0.5;"/></g><g class="participant participant-head" data-participant="System"><rect fill="#E2E2F0" height="30.4883" rx="2.5" ry="2.5" style="stroke:#181818;stroke-width:0.5;" width="70.2256" x="179.8154" y="87.4883"/><text fill="#000000" font-family="sans-serif" font-size="14" lengthAdjust="spacing" textLength="56.2256" x="186.8154" y="108.0234">BackEnd</text></g><g class="participant participant-tail" data-participant="System"><rect fill="#E2E2F0" height="30.4883" rx="2.5" ry="2.5" style="stroke:#181818;stroke-width:0.5;" width="70.2256" x="179.8154" y="403.7715"/><text fill="#000000" font-family="sans-serif" font-size="14" lengthAdjust="spacing" textLength="56.2256" x="186.8154" y="424.3066">BackEnd</text></g><g class="participant participant-head" data-participant="API"><rect fill="#E2E2F0" height="30.4883" rx="2.5" ry="2.5" style="stroke:#181818;stroke-width:0.5;" width="87.4521" x="321.7261" y="87.4883"/><text fill="#000000" font-family="sans-serif" font-size="14" lengthAdjust="spacing" textLength="73.4521" x="328.7261" y="108.0234">ISBNdb API</text></g><g class="participant participant-tail" data-participant="API"><rect fill="#E2E2F0" height="30.4883" rx="2.5" ry="2.5" style="stroke:#181818;stroke-width:0.5;" width="87.4521" x="321.7261" y="403.7715"/><text fill="#000000" font-family="sans-serif" font-size="14" lengthAdjust="spacing" textLength="73.4521" x="328.7261" y="424.3066">ISBNdb API</text></g><g><title>BackEnd</title><rect fill="#FFFFFF" height="87.9316" style="stroke:#181818;stroke-width:1;" width="10" x="209.9282" y="150.2871"/></g><g><title>BackEnd</title><rect fill="#FFFFFF" height="87.9316" style="stroke:#181818;stroke-width:1;" width="10" x="209.9282" y="291.8398"/></g><g><title>ISBNdb API</title><rect fill="#FFFFFF" height="29.3105" style="stroke:#181818;stroke-width:1;" width="10" x="360.4521" y="179.5977"/></g><g><title>ISBNdb API</title><rect fill="#FFFFFF" height="29.3105" style="stroke:#181818;stroke-width:1;" width="10" x="360.4521" y="321.1504"/></g><g class="message" data-participant-1="Client" data-participant-2="System"><polygon fill="#181818" points="197.9282,146.2871,207.9282,150.2871,197.9282,154.2871,201.9282,150.2871" style="stroke:#181818;stroke-width:1;"/><line style="stroke:#181818;stroke-width:1;" x1="46.6523" x2="203.9282" y1="150.2871" y2="150.2871"/><text fill="#000000" font-family="sans-serif" font-size="13" lengthAdjust="spacing" textLength="144.2759" x="56.1523" y="145.5449">GET /isbn?title={t&#237;tulo}</text></g><g class="message" data-participant-1="System" data-participant-2="API"><polygon fill="#181818" points="348.4521,175.5977,358.4521,179.5977,348.4521,183.5977,352.4521,179.5977" style="stroke:#181818;stroke-width:1;"/><line style="stroke:#181818;stroke-width:1;" x1="219.9282" x2="354.4521" y1="179.5977" y2="179.5977"/><text fill="#000000" font-family="sans-serif" font-size="13" lengthAdjust="spacing" textLength="91.8506" x="244.2649" y="174.8555">Pesquisar livro</text></g><g class="message" data-participant-1="API" data-participant-2="System"><polygon fill="#181818" points="230.9282,204.9082,220.9282,208.9082,230.9282,212.9082,226.9282,208.9082" style="stroke:#181818;stroke-width:1;"/><line style="stroke:#181818;stroke-width:1;stroke-dasharray:2,2;" x1="224.9282" x2="364.4521" y1="208.9082" y2="208.9082"/><text fill="#000000" font-family="sans-serif" font-size="13" lengthAdjust="spacing" textLength="27.8281" x="278.7761" y="204.166">ISBN</text></g><g class="message" data-participant-1="System" data-participant-2="Client"><polygon fill="#181818" points="57.6523,234.2188,47.6523,238.2188,57.6523,242.2188,53.6523,238.2188" style="stroke:#181818;stroke-width:1;"/><line style="stroke:#181818;stroke-width:1;stroke-dasharray:2,2;" x1="51.6523" x2="213.9282" y1="238.2188" y2="238.2188"/><text fill="#000000" font-family="sans-serif" font-size="13" lengthAdjust="spacing" textLength="87.7563" x="86.9121" y="233.4766">200 OK (ISBN)</text></g><path d="M10,253.2188 L72.1387,253.2188 L72.1387,260.5293 L62.1387,270.5293 L10,270.5293 L10,253.2188" fill="#EEEEEE" style="stroke:#000000;stroke-width:1.5;"/><rect fill="none" height="134.5527" style="stroke:#000000;stroke-width:1.5;" width="409.1782" x="10" y="253.2188"/><text fill="#000000" font-family="sans-serif" font-size="13" font-weight="bold" lengthAdjust="spacing" textLength="17.1387" x="25" y="266.7871">alt</text><text fill="#000000" font-family="sans-serif" font-size="11" font-weight="bold" lengthAdjust="spacing" textLength="125.4473" x="87.1387" y="265.8535">[ISBN n&#227;o encontrado]</text><g class="message" data-participant-1="Client" data-participant-2="System"><polygon fill="#181818" points="197.9282,287.8398,207.9282,291.8398,197.9282,295.8398,201.9282,291.8398" style="stroke:#181818;stroke-width:1;"/><line style="stroke:#181818;stroke-width:1;" x1="46.6523" x2="203.9282" y1="291.8398" y2="291.8398"/><text fill="#000000" font-family="sans-serif" font-size="13" lengthAdjust="spacing" textLength="144.2759" x="56.1523" y="287.0977">GET /isbn?title={t&#237;tulo}</text></g><g class="message" data-participant-1="System" data-participant-2="API"><polygon fill="#181818" points="348.4521,317.1504,358.4521,321.1504,348.4521,325.1504,352.4521,321.1504" style="stroke:#181818;stroke-width:1;"/><line style="stroke:#181818;stroke-width:1;" x1="219.9282" x2="354.4521" y1="321.1504" y2="321.1504"/><text fill="#000000" font-family="sans-serif" font-size="13" lengthAdjust="spacing" textLength="92.1299" x="244.1252" y="316.4082">Pesquisar ISBN</text></g><g class="message" data-participant-1="API" data-participant-2="System"><polygon fill="#181818" points="230.9282,346.4609,220.9282,350.4609,230.9282,354.4609,226.9282,350.4609" style="stroke:#181818;stroke-width:1;"/><line style="stroke:#181818;stroke-width:1;stroke-dasharray:2,2;" x1="224.9282" x2="364.4521" y1="350.4609" y2="350.4609"/><text fill="#000000" font-family="sans-serif" font-size="13" lengthAdjust="spacing" textLength="116.5239" x="234.4282" y="345.7188">Nenhum resultado</text></g><g class="message" data-participant-1="System" data-participant-2="Client"><polygon fill="#181818" points="57.6523,375.7715,47.6523,379.7715,57.6523,383.7715,53.6523,379.7715" style="stroke:#181818;stroke-width:1;"/><line style="stroke:#181818;stroke-width:1;stroke-dasharray:2,2;" x1="51.6523" x2="213.9282" y1="379.7715" y2="379.7715"/><text fill="#000000" font-family="sans-serif" font-size="13" lengthAdjust="spacing" textLength="94.6118" x="83.4844" y="375.0293">404 Not Found</text></g><!--SRC=[bL31QW8n5BpdAuOzjGVf8fuMsgB55YdT2fRUu-x31cEYoLkXb7vDptw5FzPaLwkxuA61yC9xC_DcmeeruLrvbYW9QsSByjwYXto_sv96N_YbCclfv0gUDXMPWbu2H2vegDN2e233v8IG1Lk7v46hs4WWFPgt26HMXLfBmqX6ibYEJLdFPv-UQTMUJsQZl9nZE9tKa525Q7JGkpimCZoDtt2Z_DpSSmnm-yNx7LVQVaSRQYkPZkAYgP4Sj39CoMygvQM3LbjdJ_YuALpqJckY5r5I2_Ad5s2DhmpzDCNhCwuY_lgSSFGWDICEOVO_5k4BhM4dIoiGpd_IHNnNFVOkXgmZj5WnH6nqiY8dyr6juCXNce_UEk7FLvtb7wG3v9RnQ2jJTda7bnGclm00]--></g></svg>